<svg version="1.2" xmlns="http://www.w3.org/2000/svg" viewBox="0 0 38 38" width="38" height="38"><style>.a{fill:#fff}</style><path class="a" d="m21.4 4.5h10.3c1.2 0.2 2.1 1.1 2.2 2.4v17.4c0 0.1 0.1 0.1 0.2 0.2 0.2 0.2 0.9 0.6 1.2 0.9 3.4 3.2 2.8 8.8-1.1 11.3-2.9 1.8-6.6 1.4-9-1-0.2-0.2-0.6-0.9-0.9-0.9h-21.8c-1.3-0.1-2.4-1-2.5-2.3v-22.2c0.1-1 1-2.1 2-2.2 0.3-0.1 1.3 0 1.4-0.1 0.2-0.1 0.1-1.2 0.1-1.5 0.1-1 1.3-2 2.4-2h7.2l3.2-3.9c0.5-0.5 1-0.9 1.6-0.3l3.5 4.2zm-0.7 1l-3.5-4-3.4 4h1.3c0.1 0 0.5 0.3 0.5 0.5v6.5h3.2v-6.5c0-0.2 0.5-0.5 0.6-0.5h1.3zm-16 1.2c-0.1 0.3 0.1 0.9 0 1.4h9.7v-1.3h-1.4c-0.5 0-0.9-0.7-0.9-1.1h-6.2c-0.5 0-1.1 0.5-1.2 1zm28 17.1v-17c0 0-0.2-0.4-0.2-0.5-0.3-0.4-0.8-0.6-1.2-0.6h-8.9c-0.1 0.4-0.4 1.1-0.9 1.1h-1.5v1.1c0 0.1 0.2 0.2 0.3 0.2 2.5 0.3 5.6-0.3 8.1 0 1 0.1 2 1.1 2.1 2.2v13.1c0.7 0 1.5 0.2 2.2 0.4zm-18.3-14.5h-12.2c-0.1 0-0.6 0.3-0.7 0.4-0.1 0.2-0.3 0.5-0.3 0.8v21.8c-0.1 0.6 0.7 1.3 1.2 1.3h21.3c-0.2-0.7-0.4-1.3-0.5-1.9-0.5-3.5 1.6-6.9 5-8 0.2 0 1-0.1 1-0.3v-13c0-0.4-0.6-1.1-0.9-1.1h-8.3v3.6c0 0.3-0.6 0.8-0.8 0.8-0.6 0.2-3 0.1-3.7 0.1-0.3-0.1-0.7-0.3-0.9-0.6 0 0-0.2-0.3-0.2-0.3v-3.6zm15.7 15.3c-4.3 0.1-7.1 4.8-5.2 8.7 1.9 3.8 7.1 4.5 9.9 1.3 3.4-4 0.5-10.1-4.7-10z"/><path class="a" d="m10.8 14.9c0.5-0.1 0.8 0 1.3 0.3 3 1.4 5.9 3.6 8.9 5.1 1.2 0.8 1.2 2.1 0 2.9-2.7 1.9-6.2 3.3-8.9 5.1-1 0.7-2.1 0.2-2.5-0.8v-11.3c0-0.6 0.6-1.2 1.2-1.3zm9.8 7.1c0.4-0.4-0.5-0.8-0.8-1-2.8-1.7-5.7-3.1-8.4-4.8-0.2-0.1-0.5-0.1-0.6 0.1v10.9l0.2 0.2z"/><path class="a" d="m30.9 30h2.6c0 0 0.4 0.2 0.4 0.2 0.3 0.3 0 1-0.3 1h-2.7v2.7c0 0.2-0.4 0.4-0.6 0.4-0.2 0-0.6-0.3-0.6-0.5v-2.6h-2.7c0 0-0.3-0.2-0.3-0.3-0.1-0.3 0-0.9 0.4-0.9h2.6v-2.6c0-0.2 0.4-0.5 0.6-0.5 0.2 0 0.6 0.3 0.6 0.4v2.7z"/><path class="a" d="m20.6 22l-9.6 5.4-0.2-0.2v-10.9c0.1-0.2 0.4-0.2 0.6-0.1 2.7 1.7 5.6 3.1 8.4 4.8 0.3 0.2 1.2 0.6 0.8 1z"/></svg>