<svg width="385" height="232" viewBox="0 0 385 232" fill="none" xmlns="http://www.w3.org/2000/svg">
<path d="M335.323 221.492H158.523L207.201 60.0449H384.001L335.323 221.492Z" fill="white" stroke="#DEDEDE" stroke-linecap="round" stroke-linejoin="round"/>
<path d="M335.324 221.492L376.567 84.7061C324.363 91.1736 293.637 134.17 245.342 181.336C214.959 211.014 193.844 219.557 181.473 221.492H335.303H335.324Z" fill="#D4D4D4" stroke="#DEDEDE" stroke-linecap="round" stroke-linejoin="round"/>
<path d="M278.303 146.541C286.026 146.541 292.286 140.515 292.286 133.082C292.286 125.649 286.026 119.623 278.303 119.623C270.581 119.623 264.32 125.649 264.32 133.082C264.32 140.515 270.581 146.541 278.303 146.541Z" fill="#C7C7C7" stroke="#DEDEDE" stroke-linecap="round" stroke-linejoin="round"/>
<path d="M337.237 220.847H6.6875V231.102H337.237V220.847Z" fill="white" stroke="#DEDEDE" stroke-linecap="round" stroke-linejoin="round"/>
<path d="M337.258 220.847H168.135V231.102H337.258V220.847Z" fill="#DEDEDE" stroke="#DEDEDE" stroke-linecap="round" stroke-linejoin="round"/>
<path d="M61.933 41.3472H6.00187C3.64454 41.3472 1.73047 39.4332 1.73047 37.0758V20.8163C1.73047 18.459 3.64454 16.5449 6.00187 16.5449H80.9326C83.29 16.5449 85.204 18.459 85.204 20.8163V27.2033" stroke="#DEDEDE" stroke-width="3" stroke-linecap="round" stroke-linejoin="round"/>
<path d="M61.4102 67.7812V33.0257C61.4102 29.9431 63.9085 27.4648 66.971 27.4648H141.197C144.279 27.4648 146.758 29.9632 146.758 33.0257V74.6517" stroke="#DEDEDE" stroke-width="3" stroke-linecap="round" stroke-linejoin="round"/>
<path d="M146.758 108.924V152.283C146.758 155.366 144.259 157.844 141.197 157.844H66.971C63.8884 157.844 61.4102 155.345 61.4102 152.283V76.123" stroke="#DEDEDE" stroke-width="3" stroke-linecap="round" stroke-linejoin="round"/>
<path d="M66.6875 47.7744H141.457" stroke="#DEDEDE" stroke-width="3" stroke-linecap="round" stroke-linejoin="round"/>
<path d="M102.391 70.3203H141.458" stroke="#DEDEDE" stroke-width="3" stroke-linecap="round" stroke-linejoin="round"/>
<path d="M66.6875 70.3203H96.3052" stroke="#DEDEDE" stroke-width="3" stroke-linecap="round" stroke-linejoin="round"/>
<path d="M66.6875 92.8662H141.457" stroke="#DEDEDE" stroke-width="3" stroke-linecap="round" stroke-linejoin="round"/>
<path d="M128.059 115.412H141.457" stroke="#DEDEDE" stroke-width="3" stroke-linecap="round" stroke-linejoin="round"/>
<path d="M66.6875 115.412H121.309" stroke="#DEDEDE" stroke-width="3" stroke-linecap="round" stroke-linejoin="round"/>
<path d="M66.6875 137.978H141.457" stroke="#DEDEDE" stroke-width="3" stroke-linecap="round" stroke-linejoin="round"/>
<path d="M16.8418 28.3916H57.5813" stroke="#DEDEDE" stroke-width="3" stroke-linecap="round" stroke-linejoin="round"/>
<path d="M157.878 111.161C154.755 111.161 151.673 109.992 149.295 107.675L141.337 99.777C140.37 98.83 140.208 97.3592 140.914 96.2108C141.377 95.4854 142.123 95.0019 142.989 94.881C143.855 94.7601 144.701 95.0422 145.326 95.6265L146.898 97.0973L138.899 80.6161C138.496 79.7699 138.456 78.823 138.798 77.9566C139.12 77.0902 139.785 76.4052 140.632 76.0425C142.324 75.3172 144.258 76.0425 145.064 77.6947L148.086 83.5376C148.691 82.8324 149.416 82.4295 150.222 82.3086C151.512 82.1071 152.7 82.7518 153.385 83.2152C154.01 82.4496 154.776 81.9862 155.642 81.8653C156.69 81.7243 157.677 82.1272 158.322 82.5101C158.745 81.5429 159.571 81.0392 160.679 81.0997C161.747 81.1601 162.734 81.8049 163.278 82.8123L168.94 93.2087C171.72 98.6688 170.128 105.217 165.192 108.803C163.016 110.395 160.457 111.161 157.939 111.161H157.878ZM143.352 96.1503C143.352 96.1503 143.211 96.1503 143.15 96.1503C142.667 96.2108 142.264 96.4727 142.002 96.8756C141.599 97.5204 141.699 98.3263 142.223 98.8502L150.182 106.748C154.05 110.496 160.014 110.919 164.366 107.756C168.799 104.552 170.209 98.6688 167.731 93.793L162.089 83.4167C161.767 82.8123 161.162 82.4093 160.538 82.3892C160.014 82.369 159.45 82.4899 159.269 83.6585L159.087 84.8271L158.201 84.0212C158.201 84.0212 156.992 82.9533 155.763 83.1346C155.098 83.2354 154.514 83.6786 154.03 84.4644L153.607 85.1293L153.043 84.5853C153.043 84.5853 151.713 83.3563 150.383 83.5578C149.658 83.6585 149.033 84.1823 148.509 85.1092L147.905 86.177L143.875 78.2588C143.372 77.2312 142.163 76.7678 141.115 77.2313C140.591 77.4529 140.188 77.8961 139.967 78.42C139.765 78.964 139.785 79.5483 140.027 80.0721L150.907 102.658L144.419 96.5734C144.117 96.2913 143.734 96.1503 143.331 96.1503H143.352Z" fill="#DEDEDE"/>
<path d="M150.907 92.4029C150.665 92.4029 150.423 92.2619 150.323 92.0201L147.361 85.0489C147.22 84.7265 147.361 84.3437 147.703 84.2027C148.026 84.0616 148.409 84.2027 148.55 84.5452L151.511 91.5164C151.652 91.8388 151.511 92.2216 151.169 92.3626C151.088 92.4029 151.008 92.4231 150.927 92.4231L150.907 92.4029Z" fill="#DEDEDE"/>
<path d="M156.065 90.8712C155.823 90.8712 155.582 90.7301 155.481 90.4682L152.902 84.3633C152.761 84.041 152.902 83.6581 153.244 83.5171C153.567 83.3761 153.95 83.5171 154.091 83.8596L156.67 89.9645C156.811 90.2869 156.67 90.6697 156.327 90.8107C156.246 90.851 156.166 90.8712 156.085 90.8712H156.065Z" fill="#DEDEDE"/>
<path d="M161.123 89.5422C160.881 89.5422 160.639 89.4011 160.539 89.1795L158.06 83.8402C157.919 83.5179 158.06 83.1351 158.383 82.994C158.705 82.853 159.088 82.994 159.229 83.3164L161.707 88.6556C161.848 88.978 161.707 89.3608 161.385 89.5019C161.304 89.5422 161.204 89.5623 161.123 89.5623V89.5422Z" fill="#DEDEDE"/>
<path d="M108.927 1.99968L101.975 8.95215L108.927 15.9046L115.88 8.95215L108.927 1.99968Z" stroke="#DEDEDE" stroke-width="3" stroke-linecap="round" stroke-linejoin="round"/>
<path d="M48.9376 65.5655C48.9376 62.7246 46.6408 60.4277 43.7999 60.4277C40.959 60.4277 38.6621 62.7246 38.6621 65.5655C38.6621 68.4064 40.959 70.7033 43.7999 70.7033C46.6408 70.7033 48.9376 68.4064 48.9376 65.5655Z" stroke="#DEDEDE" stroke-width="3" stroke-linecap="round" stroke-linejoin="round"/>
</svg>
