<svg width="327" height="325" viewBox="0 0 327 325" fill="none" xmlns="http://www.w3.org/2000/svg"><path d="M1.67993 131.9C23.0799 136.57 44.4799 141.24 65.8799 145.91C56.0999 116.76 92.5399 97.6903 82.7599 68.5403C61.3599 63.8703 39.9599 59.2003 18.5599 54.5303C28.3399 83.6803 -8.10007 102.75 1.67993 131.9Z" fill="white"/><path d="M45.0303 113.131L33.4703 110.941L33.6903 109.781C34.0603 107.811 34.5903 106.261 35.2703 105.111C35.9503 103.971 36.8203 102.971 37.9003 102.131C38.9703 101.281 41.2903 99.8707 44.8603 97.9007C46.7603 96.8707 47.8103 95.8007 48.0203 94.6907C48.2303 93.5707 48.0703 92.6407 47.5203 91.9007C46.9803 91.1607 46.0403 90.6607 44.7003 90.4007C43.2603 90.1307 41.9803 90.3807 40.8503 91.1507C39.7303 91.9207 38.8103 93.4707 38.1003 95.8007L26.5703 92.1107C27.8003 87.8507 30.0403 84.6507 33.2803 82.5207C36.5303 80.3907 40.9903 79.8707 46.6703 80.9407C51.0903 81.7807 54.4903 83.3807 56.8603 85.7407C60.0803 88.9307 61.3003 92.6107 60.5103 96.7707C60.1803 98.4907 59.3903 100.071 58.1403 101.491C56.8803 102.911 54.5703 104.501 51.1903 106.261C48.8303 107.501 47.2903 108.551 46.5703 109.441C45.8503 110.321 45.3303 111.551 45.0403 113.141L45.0303 113.131ZM32.4903 113.941L44.8703 116.281L42.8003 127.201L30.4203 124.861L32.4903 113.941Z" stroke="#121D30" stroke-width="0.75" stroke-miterlimit="10"/><path d="M233.76 101.61C252.62 90.47 271.48 79.33 290.34 68.19C263.34 53.48 277.07 14.71 250.06 0C231.2 11.14 212.34 22.28 193.48 33.42C220.48 48.13 206.75 86.9 233.76 101.61Z" fill="white"/><path d="M252.901 55.9198L242.651 61.6998L242.071 60.6698C241.091 58.9298 240.491 57.3998 240.271 56.0898C240.051 54.7798 240.081 53.4498 240.361 52.1098C240.641 50.7698 241.501 48.1998 242.961 44.3898C243.751 42.3798 243.861 40.8798 243.301 39.8898C242.741 38.8998 242.021 38.2998 241.121 38.0798C240.231 37.8598 239.191 38.0798 238.001 38.7598C236.721 39.4798 235.911 40.4998 235.551 41.8098C235.191 43.1298 235.491 44.8998 236.441 47.1398L225.241 51.7498C223.431 47.6998 223.081 43.8098 224.201 40.0898C225.311 36.3698 228.391 33.0898 233.421 30.2498C237.341 28.0398 240.971 27.0698 244.301 27.3498C248.821 27.7198 252.121 29.7398 254.201 33.4298C255.061 34.9598 255.471 36.6698 255.431 38.5698C255.391 40.4698 254.641 43.1798 253.191 46.6998C252.181 49.1598 251.691 50.9598 251.711 52.1098C251.731 53.2498 252.131 54.5198 252.921 55.9298L252.901 55.9198ZM243.831 64.6198L254.811 58.4298L260.271 68.1098L249.291 74.2998L243.831 64.6198Z" stroke="#121D30" stroke-width="0.75" stroke-miterlimit="10"/><path d="M286.471 209.08C267.611 197.94 248.751 186.8 229.891 175.66C256.901 160.95 243.161 122.18 270.171 107.47C289.031 118.61 307.891 129.75 326.751 140.89C299.741 155.6 313.481 194.37 286.471 209.08Z" fill="white"/><path d="M279.94 167.61L269.42 162.33L269.95 161.28C270.85 159.49 271.78 158.14 272.75 157.23C273.72 156.32 274.83 155.6 276.1 155.08C277.37 154.56 279.98 153.84 283.96 152.93C286.07 152.46 287.37 151.72 287.88 150.71C288.39 149.7 288.49 148.76 288.17 147.89C287.85 147.03 287.09 146.29 285.87 145.68C284.56 145.02 283.26 144.91 281.97 145.35C280.68 145.79 279.37 147.02 278.04 149.06L267.97 142.34C270.32 138.58 273.35 136.12 277.06 134.97C280.77 133.82 285.21 134.54 290.37 137.13C294.39 139.15 297.22 141.62 298.85 144.54C301.07 148.5 301.23 152.36 299.33 156.15C298.54 157.72 297.35 159.01 295.75 160.04C294.15 161.06 291.49 161.95 287.75 162.71C285.15 163.25 283.37 163.84 282.44 164.49C281.5 165.14 280.67 166.18 279.95 167.62L279.94 167.61ZM267.66 164.94L278.92 170.6L273.93 180.53L262.67 174.87L267.66 164.94Z" stroke="#121D30" stroke-width="0.75" stroke-miterlimit="10"/><path d="M95.9004 321.251H215.34V322.571C215.34 323.391 214.68 324.051 213.86 324.051H97.3804C96.5604 324.051 95.9004 323.391 95.9004 322.571V321.251Z" fill="#DEDEDE"/><path d="M180.341 278.891H131.041V295.761C147.301 292.051 163.801 288.981 180.341 286.131V278.891Z" fill="#969696"/><path d="M131.041 295.761V313.231H180.341V286.131C163.801 288.981 147.301 292.051 131.041 295.761Z" fill="#DEDEDE"/><path d="M214.711 322.051H96.6713C95.8713 322.051 95.6913 320.931 96.4513 320.681L131.041 309.301H180.341L214.931 320.681C215.691 320.931 215.511 322.051 214.711 322.051Z" fill="#DEDEDE"/><path d="M174.74 309.301H179.17" stroke="#121D30" stroke-width="0.75" stroke-miterlimit="10"/><path d="M131.039 309.301H170.199" stroke="#121D30" stroke-width="0.75" stroke-miterlimit="10"/><path d="M131.039 295.76L168.149 288.28" stroke="#121D30" stroke-width="0.75" stroke-miterlimit="10"/><path d="M180.34 278.891V309.301" stroke="#121D30" stroke-width="0.75" stroke-miterlimit="10"/><path d="M130.02 322.051H213.91" stroke="#121D30" stroke-width="0.75" stroke-miterlimit="10"/><path d="M131.039 280.921V306.711" stroke="#121D30" stroke-width="0.75" stroke-miterlimit="10"/><path d="M252.47 138.07H58.8502C54.2331 138.07 50.4902 141.813 50.4902 146.43V274.31C50.4902 278.927 54.2331 282.67 58.8502 282.67H252.47C257.087 282.67 260.83 278.927 260.83 274.31V146.43C260.83 141.813 257.087 138.07 252.47 138.07Z" fill="#DEDEDE"/><path d="M260.83 168.78V274.31C260.83 278.93 257.09 282.67 252.47 282.67H159.84" stroke="#121D30" stroke-width="0.75" stroke-miterlimit="10"/><path d="M50.4902 255.42V146.43C50.4902 141.81 54.2302 138.07 58.8502 138.07H252.47" stroke="#121D30" stroke-width="0.75" stroke-miterlimit="10"/><path d="M196.96 190.531C191.23 190.531 185.96 192.501 181.78 195.801C181.78 195.721 181.78 195.641 181.78 195.561C181.78 181.131 170.08 169.431 155.65 169.431C141.22 169.431 129.52 181.131 129.52 195.561C129.52 195.641 129.52 195.721 129.52 195.801C125.34 192.501 120.08 190.531 114.34 190.531C100.8 190.531 89.8301 201.501 89.8301 215.041C89.8301 228.581 100.8 239.551 114.34 239.551C114.66 239.551 114.97 239.541 115.29 239.531C115.61 239.541 115.92 239.551 116.24 239.551H195.43C195.69 239.551 195.94 239.541 196.19 239.531C196.44 239.531 196.7 239.551 196.95 239.551C210.49 239.551 221.46 228.581 221.46 215.041C221.46 201.501 210.49 190.531 196.95 190.531H196.96Z" fill="white"/><path d="M196.96 190.531C191.23 190.531 185.96 192.501 181.78 195.801C181.78 195.721 181.78 195.641 181.78 195.561C181.78 181.131 170.08 169.431 155.65 169.431C141.22 169.431 129.52 181.131 129.52 195.561C129.52 195.641 129.52 195.721 129.52 195.801C125.34 192.501 120.08 190.531 114.34 190.531C100.8 190.531 89.8301 201.501 89.8301 215.041C89.8301 228.581 100.8 239.551 114.34 239.551C114.66 239.551 114.97 239.541 115.29 239.531C115.61 239.541 115.92 239.551 116.24 239.551" stroke="#121D30" stroke-width="0.75" stroke-miterlimit="10"/></svg>