<svg width="157" height="111" viewBox="0 0 157 111" fill="none" xmlns="http://www.w3.org/2000/svg"><path d="M21.032 14.4007C20.2478 13.7515 19.1071 13.9241 18.3453 14.5057C17.8763 14.8622 17.5386 15.305 17.2497 15.7778C17.1971 13.9466 17.0508 12.123 16.7806 10.3069C16.548 8.72717 16.3754 6.45702 14.5593 5.84164C11.9777 4.96735 11.5574 7.52267 11.6325 9.94667C10.4242 8.08927 8.80696 6.44576 7.1597 7.25251C5.3811 8.1268 5.92894 10.3819 6.91579 12.3594C5.56496 11.6877 4.06404 11.3388 2.49932 11.35C2.06406 11.3538 1.70759 11.714 1.70008 12.1493C1.67006 13.9091 2.48056 15.2637 3.60626 16.3969C1.86894 16.2205 0.165387 16.4532 0.00778987 18.2655C-0.0972749 19.455 0.878326 20.2543 1.85393 20.682C3.40363 21.3612 5.02838 21.909 6.61561 22.5057C8.15781 27.3424 13.5987 29.4587 18.1089 26.9109C18.214 26.8508 18.2966 26.7795 18.3566 26.697C18.5742 26.6257 18.7656 26.4643 18.8481 26.1754C19.5874 23.6238 20.3266 21.076 21.0658 18.5244C21.426 17.2787 22.2815 15.4363 21.0282 14.4007H21.032Z" fill="#ACACAC"/><path d="M19.5313 18.0968C19.3099 18.8623 19.0885 19.6278 18.8671 20.3932L17.3887 25.4926C17.3625 25.5039 17.3362 25.5114 17.3099 25.5264C13.4751 27.6915 8.99856 25.699 7.98919 21.4476C7.86536 20.9223 7.38131 20.791 6.98357 20.9298L4.841 20.1156C4.11305 19.8379 2.96484 19.6315 2.34946 19.155L2.04553 18.9899C1.77536 18.2244 1.90669 17.8754 2.43952 17.9467C2.82601 17.8041 3.37009 18.0143 3.77534 18.0743C4.64212 18.2056 5.50891 18.352 6.37194 18.4908C7.37756 18.6522 7.80908 17.1137 6.79595 16.9486C6.79595 16.9486 6.78845 16.9486 6.78469 16.9486C6.76218 16.9261 6.73967 16.9073 6.7134 16.8886C5.29127 15.8717 3.74532 14.716 3.3851 12.9787C5.34005 13.1588 7.08863 14.0106 8.48074 15.4627C8.72464 15.7179 9.01732 15.7479 9.26872 15.6541C9.89161 15.8117 10.567 14.9261 10.0267 14.2807C9.38505 13.5153 8.84096 12.686 8.42821 11.7779C8.21808 11.3164 7.02859 8.68228 8.33065 8.78734C8.9798 8.83988 10.143 10.686 10.462 11.1513C11.0248 11.9731 11.4976 12.8511 11.8841 13.7704C12.2218 14.5697 13.4038 14.382 13.4826 13.7141C13.5313 13.6091 13.5614 13.4815 13.5464 13.3276C13.445 12.1757 13.34 11.0237 13.2462 9.87176C13.2237 9.60159 13.0398 7.80049 13.3475 7.70668C14.233 7.43651 14.9572 8.98246 15.066 9.59034C15.5238 12.1682 15.6889 14.7835 15.6814 17.3989C15.6814 17.6616 15.7865 17.8567 15.9403 17.9843C15.5538 18.4683 15.066 18.8698 14.3456 19.0987C13.37 19.4101 13.7865 20.9523 14.7696 20.6409C15.6927 20.3482 16.4469 19.928 17.0923 19.1963C17.5876 18.6334 18.1955 16.6409 18.8109 16.3445C20.6945 15.4402 19.6664 17.6428 19.535 18.0931L19.5313 18.0968Z" fill="black"/><path d="M65.343 52.0252C65.8908 51.5186 65.4668 50.3816 64.6113 50.6631C54.7164 53.8976 43.5908 52.528 34.9155 46.7044C26.9268 41.3461 21.5648 32.4644 20.2815 22.9673C20.304 22.9372 20.3228 22.911 20.3378 22.881C20.3115 22.6446 20.2965 22.4082 20.289 22.1718C20.0826 21.8341 19.6549 21.6014 19.1933 21.8078C17.5348 22.547 15.88 23.2862 14.2215 24.0254C12.7243 24.6933 10.8857 25.2299 9.56489 26.198C7.98141 27.3575 7.9514 29.5338 8.48798 31.2749C8.97202 32.8471 10.0189 33.1435 11.2797 32.9034C12.8669 43.5599 17.6286 53.6499 24.8105 61.7324C29.1482 66.6104 34.3977 70.8167 40.2438 73.7473C46.0261 76.6478 53.4632 78.3739 59.0053 74.0137C65.5119 68.8993 65.6319 59.9538 65.4593 52.4229C65.4593 52.2653 65.4105 52.134 65.3467 52.0252H65.343Z" fill="#ACACAC"/><path d="M9.86154 29.9165C9.52383 27.2374 12.3643 26.5882 14.3118 25.7177C15.8052 25.0535 17.2949 24.3856 18.7883 23.7214C18.9834 24.9897 19.2461 26.243 19.5763 27.4813C18.0754 28.3443 16.5444 29.1473 14.9572 29.849C13.5426 30.4756 10.1805 32.4831 9.86154 29.9165Z" fill="#DEDEDE"/><path d="M58.9152 71.9803C53.5456 77.121 45.6995 74.9109 39.906 71.7702C29.6021 66.183 21.4559 56.9485 16.7467 46.2545C14.803 41.8417 13.486 37.1889 12.8105 32.4309C15.3096 31.5191 17.7186 30.3672 20.0337 29.0576C22.3789 36.536 27.1069 43.2001 33.6059 47.7366C42.33 53.8266 53.6957 55.4964 63.8645 52.5583C64.0146 59.2037 64.1046 67.0122 58.9189 71.9803H58.9152Z" fill="#DEDEDE"/><path d="M106.727 40.6894C102.881 36.9408 99.984 32.2542 98.348 27.1398C97.8077 25.4513 97.4024 23.7177 97.136 21.9616C96.8358 19.9691 96.8133 17.9692 96.7345 15.9542C96.7045 15.1437 96.5619 15.0236 95.9465 14.5245C95.4625 14.138 94.9672 13.7703 94.4569 13.4176C93.4325 12.7122 92.3593 12.0818 91.2486 11.5264C89.0123 10.4082 86.622 9.59775 84.168 9.11745C79.2825 8.16062 74.1006 8.53209 69.5115 10.5208C68.7273 10.8623 67.9656 11.245 67.2263 11.6765C65.095 12.9185 63.3502 14.6484 62.3859 16.9448C61.2677 19.6089 61.1364 22.5357 60.6223 25.35C58.5623 30.9522 54.7537 35.7776 49.658 39.0534C48.795 39.6087 49.5942 40.9896 50.4648 40.4342C53.688 38.363 56.4385 35.6988 58.5998 32.6294C57.264 36.1941 55.4629 39.5712 53.2527 42.7044C53.2377 42.7044 53.219 42.7044 53.204 42.7006C53.0914 42.9595 52.9601 43.2072 52.8137 43.4473C52.3259 44.2503 53.1327 44.7682 53.6768 45.2597C54.3897 45.8976 55.1589 46.468 55.9356 47.0271C57.5154 48.1603 59.2302 49.0983 61.0238 49.8488C64.6523 51.3647 68.5659 52.1227 72.4796 52.4079C75.3989 52.618 78.3332 52.5692 81.2487 52.3328C90.6108 51.5824 99.924 48.4867 106.731 41.8038C107.031 41.5112 107.035 40.9896 106.731 40.6931L106.727 40.6894Z" fill="#ACACAC"/><path d="M81.2451 50.7607C71.9394 51.515 61.4329 50.4756 54.4424 43.7327C57.5118 39.44 59.842 34.6633 61.2603 29.579C62.6299 24.6672 62.0296 17.9055 66.2021 14.307C70.0407 10.9975 75.9206 9.97313 80.8324 10.2696C86.1231 10.5885 91.23 12.5997 95.2863 16.0106C95.2413 16.1044 95.215 16.2132 95.2112 16.3408C95.0086 25.6053 98.5771 34.6146 105.042 41.2261C98.5958 47.2373 89.928 50.0553 81.2489 50.7607H81.2451Z" fill="#ACACAC"/><path d="M96.4456 108.426C97.0309 107.728 97.2561 106.738 97.3349 105.379C97.4062 104.141 97.4812 102.906 97.5713 101.668C98.1904 93.0679 98.378 84.4376 98.1454 75.8148C98.029 71.5034 97.8039 67.1995 97.4737 62.8993C97.2448 59.9162 97.076 56.7455 95.7139 54.0251C94.3743 51.3572 91.9616 49.9726 89.1323 49.3085C83.0423 47.8863 76.4833 48.1603 70.4195 49.042C68.5096 49.3197 66.4383 49.451 64.6485 50.224C61.4403 51.6086 59.6842 55.1283 58.5022 58.224C56.9262 62.344 56.1833 66.783 55.3953 71.1056C54.5323 75.8636 53.8193 80.6478 53.2527 85.4507C52.7687 89.567 52.3334 93.6908 52.0933 97.8296C51.9732 99.8971 51.9019 101.968 51.8981 104.043C51.8981 105.019 51.4629 106.381 52.0895 107.222C53.3578 108.921 56.1345 108.764 57.9994 109.068C63.474 109.961 68.8623 110.786 74.4233 110.94C80.8472 111.117 87.5001 110.794 93.834 109.679C95.0947 109.458 95.9165 109.06 96.4456 108.426Z" fill="#ACACAC"/><path d="M53.5339 105.852C53.5039 105.803 53.4739 105.743 53.4514 105.676C53.3613 105.405 53.3763 105.116 53.3951 104.831C53.8829 96.4786 54.4532 88.1635 55.6465 79.8746C56.6146 73.1467 57.5226 66.0736 59.7553 59.6272C61.0048 56.0174 62.8959 52.1338 66.9484 51.2595C74.4831 49.6385 82.468 48.8843 89.9313 51.2445C93.7512 52.4527 95.0495 55.8824 95.5073 59.5559C96.4941 67.4545 96.5955 75.5707 96.5804 83.5219C96.5617 91.2441 96.1302 98.9364 95.526 106.632C95.4135 108.051 91.346 108.013 90.2653 108.133C88.5768 108.321 86.8845 108.467 85.1922 108.617C81.6838 108.929 78.1566 109.038 74.6369 108.951C71.1135 108.865 67.5976 108.576 64.1079 108.092C62.3594 107.848 60.6183 107.555 58.8885 107.214C57.4926 106.936 55.1925 106.846 53.9692 106.186C53.7816 106.085 53.639 106.009 53.5339 105.848V105.852Z" fill="black"/><path d="M84.7869 58.7567C83.3348 56.9218 80.5468 57.207 78.483 57.2408C76.787 57.2708 75.0909 57.3008 73.3911 57.3271C71.9503 57.3533 70.318 57.2145 68.9784 57.8524C66.9259 58.828 66.622 61.0981 66.8509 63.1469C67.2111 66.3926 68.2392 69.6459 69.4962 72.644C70.2992 74.5614 71.3536 77.4657 73.7364 77.8635C76.2954 78.2875 77.8676 75.522 79.0946 73.7397C81.5111 70.2313 83.665 66.3101 85.1359 62.2463C85.5861 60.9968 85.6424 59.8374 84.7832 58.7529L84.7869 58.7567Z" fill="#ACACAC"/><path d="M76.8963 74.1C76.0746 75.2107 75.159 76.6704 73.6168 76.0024C72.5024 75.5184 72.0221 74.3664 71.5305 73.3195C70.5624 71.2558 69.8007 69.0944 69.2266 66.8918C68.7613 65.1095 68.1159 63.0307 68.4349 61.1771C68.9152 58.3703 72.3485 58.9444 74.4798 58.9069C76.5361 58.8694 78.6336 58.7193 80.6899 58.8169C81.7368 58.8656 83.1702 59.3459 83.7105 60.3253C84.4535 61.6649 83.1177 63.3459 82.5248 64.4904C80.8175 67.7811 79.1027 71.1094 76.8888 74.1H76.8963Z" fill="#DEDEDE"/><path d="M92.7794 64.2239C92.7156 62.3515 92.074 60.4003 91.5824 58.7005C90.5693 55.1696 89.1397 51.7588 87.3123 48.573C85.2335 44.9483 82.2879 40.408 77.485 40.9333C72.5845 41.4737 68.6183 46.119 66.1117 50.0027C63.4363 54.1527 61.7478 59.0833 61.5264 64.0288C61.4326 66.0963 62.2919 67.5035 64.5132 67.0869C68.0404 66.4228 71.5526 65.1733 75.016 64.2239C75.0347 64.2202 75.0535 64.2089 75.0722 64.2014C77.6463 64.2464 80.1379 64.8206 82.4343 66.01C84.2579 66.9556 85.7138 68.753 87.6537 69.4359C89.0196 69.9162 90.438 69.5297 91.4023 68.4453C92.5017 67.2108 92.8282 65.7436 92.7757 64.2239H92.7794Z" fill="#ACACAC"/><path d="M87.3386 67.4847C85.9915 66.7005 84.9071 65.5448 83.5225 64.7868C80.9372 63.3684 78.0742 62.5392 75.1098 62.7643C71.9879 63.0007 68.8435 64.2577 65.8341 65.0832C65.2713 65.2371 63.6015 65.9162 63.155 65.2033C62.9373 64.8581 63.155 63.511 63.1925 63.0908C63.3238 61.6986 63.5715 60.3178 63.9204 58.9632C65.2225 53.9051 67.9654 49.2222 71.8078 45.6763C73.9166 43.7326 76.9222 41.7251 79.9165 42.7682C82.5732 43.6913 84.2317 46.5093 85.5863 48.7907C87.8789 52.6518 90.1303 56.8807 90.7119 61.451C90.9859 63.6273 91.1472 69.6986 87.3386 67.4847Z" fill="black"/><path d="M92.7571 44.3891C91.5789 44.4454 90.4607 44.0626 89.6014 43.3122C88.6371 42.4679 88.063 41.2897 87.9879 39.9989C87.9091 38.6593 88.3857 37.3122 89.29 36.3066C90.0554 35.4548 91.1174 34.8957 92.2731 34.7344C92.4081 34.7156 92.547 34.7006 92.6896 34.6931C93.8715 34.6368 95.091 35.0271 95.9503 35.7362C96.4982 36.1903 96.8809 36.7456 97.0835 37.3835C97.2636 37.9464 97.3349 38.5617 97.3012 39.2109C97.2374 40.4116 96.8171 41.6124 96.1229 42.588C95.3575 43.6649 94.1305 44.3215 92.7571 44.3891Z" fill="#ACACAC"/><path d="M94.9639 41.7362C93.902 43.2146 91.7294 43.3685 90.4312 42.1152C89.1441 40.877 89.1479 38.9895 90.1948 37.5974C90.7463 36.862 91.5643 36.3029 92.4762 36.1415C93.3842 35.9802 94.3523 36.3141 95.0352 36.9145C95.8007 37.5899 95.9996 38.4942 95.8645 39.4811C95.7557 40.2841 95.4405 41.0758 94.9677 41.7362H94.9639Z" fill="black"/><path d="M63.9651 39.6049C62.7869 39.6612 61.6687 39.2784 60.8094 38.528C59.8451 37.6837 59.271 36.5055 59.1959 35.2147C59.1171 33.8751 59.5937 32.528 60.498 31.5224C61.2635 30.6706 62.3254 30.1115 63.4811 29.9502C63.6162 29.9314 63.755 29.9164 63.8976 29.9089C65.0796 29.8526 66.2991 30.2429 67.1583 30.9521C67.7062 31.4061 68.0889 31.9614 68.2915 32.5993C68.4716 33.1622 68.5429 33.7776 68.5092 34.4267C68.4454 35.6274 68.0251 36.8282 67.3309 37.8038C66.5655 38.8807 65.3385 39.5373 63.9651 39.6049Z" fill="#ACACAC"/><path d="M66.1719 36.9521C65.11 38.4305 62.9375 38.5843 61.6392 37.331C60.3521 36.0928 60.3559 34.2054 61.4028 32.8133C61.9544 32.0778 62.7724 31.5187 63.6842 31.3574C64.5922 31.196 65.5603 31.53 66.2432 32.1303C67.0087 32.8058 67.2076 33.7101 67.0725 34.6969C66.9637 35.4999 66.6485 36.2917 66.1757 36.9521H66.1719Z" fill="black"/><path d="M69.2068 53.1847C69.2218 52.7044 69.2368 52.2241 69.2743 51.7401C69.3569 50.6969 69.4995 49.6575 69.6909 48.6294C69.871 47.65 69.8972 46.6407 69.9948 45.6501C70.0323 45.2148 70.1937 44.6332 69.976 44.2279C69.7546 43.8189 69.173 43.6051 68.8166 43.3236C68.3138 42.9259 67.8447 42.4681 67.4094 42.0028C66.4451 40.9747 65.6384 39.8152 65.0155 38.5507C63.023 34.5132 62.4639 29.4739 63.3044 23.1437C64.0661 17.4102 66.6027 7.38025 74.9929 4.61855C75.0904 4.58478 75.1767 4.56601 75.263 4.5435C75.3456 4.52099 75.4356 4.50222 75.5445 4.46095C76.8015 3.98441 78.1561 3.70673 79.5632 3.63919C81.9572 3.52287 84.4787 4.01818 86.8502 5.07633C90.5987 6.74611 93.4843 10.0631 94.9702 14.4121C96.1221 17.7741 96.5086 21.7178 96.1259 26.1418C95.6418 31.744 94.3098 36.3518 92.1747 39.8377C91.1691 41.4775 89.8558 42.8659 88.2723 43.9578C87.7357 44.3293 87.1654 44.667 86.5838 44.9559C86.2423 45.1247 86.2198 45.2636 86.1372 45.7251L86.096 45.9502C86.0134 46.3668 85.9346 46.787 85.8596 47.2073C85.7095 48.0628 85.5781 48.9146 85.4768 49.7288C85.2592 51.4812 85.1466 53.1885 85.1466 54.8095C85.1466 54.8695 77.6758 71.4209 73.1918 69.4923C71.0192 68.5579 69.4582 65.4172 69.1468 63.0983C68.7828 60.4192 68.9817 57.6537 69.1468 54.9671C69.1843 54.3779 69.1918 53.7851 69.2106 53.1922L69.2068 53.1847Z" fill="#ACACAC"/><path d="M92.4297 36.033C91.1277 39.3876 89.0302 42.1118 85.8857 43.714C85.7056 43.8491 85.548 43.9992 85.4017 44.1568C85.2853 44.2956 85.1803 44.442 85.0865 44.5921C84.8914 45.0686 84.73 45.5526 84.6174 46.0555C84.6137 46.078 84.6024 46.0967 84.5874 46.1117C84.0358 48.8509 83.7507 51.6239 83.7206 54.4231C82.9852 57.7777 75.7207 68.3442 73.413 67.5112C71.7995 66.9296 71.2367 64.817 70.9253 63.3273C70.4787 61.1773 70.3999 58.9521 70.4037 56.7646C70.4037 55.2749 70.4224 53.7852 70.5613 52.3031C70.6964 50.8734 71.0453 49.4851 71.2142 48.0592C71.3643 46.7759 71.6382 45.365 71.2254 44.0817C70.7601 42.6446 69.4093 42.078 68.4225 41.0536C67.4168 40.0105 66.5988 38.7985 66.006 37.4777C64.4225 33.9467 64.2049 29.9093 64.4525 26.1007C64.9103 19.0463 67.2105 9.65429 74.2836 6.44606C74.6025 6.27721 74.7188 6.22467 74.9402 6.1121C78.1822 4.52863 81.8595 4.77253 85.2591 5.98828C88.6437 7.19652 91.274 9.71432 92.82 12.9413C94.3359 16.112 94.8612 19.6767 94.8387 23.1664C94.8125 27.5115 94.0057 31.9805 92.4297 36.033Z" fill="black"/><path d="M85.2589 5.98828C81.8593 4.77253 78.182 4.52863 74.94 6.1121C74.7149 6.22092 74.6023 6.27345 74.2834 6.44606C67.214 9.65053 64.9101 19.0426 64.4523 26.1007C64.4223 26.581 64.396 27.0613 64.3848 27.5453C67.2966 28.1907 70.1671 25.7292 69.4279 22.4384C69.7018 22.4684 69.9982 22.3821 70.2008 22.1045C72.9738 18.3484 76.0244 14.825 79.3265 11.5342L82.7336 18.1345C83.9418 20.4722 85.0112 22.975 86.5684 25.1026C88.3583 27.5453 91.5515 29.4365 94.437 28.337C94.6884 26.6147 94.8273 24.8812 94.8385 23.1626C94.861 19.673 94.3357 16.1083 92.8198 12.9376C91.2776 9.71057 88.6472 7.19277 85.2589 5.98453V5.98828Z" fill="#EDF3F5"/><path d="M77.8335 44.7118C79.1768 44.9144 81.2481 44.6292 81.5633 46.344C81.8747 48.0401 80.2049 50.5916 79.462 52.0063C78.2612 54.2952 76.8053 56.7717 74.9217 58.5653C73.5258 59.8936 71.8635 60.0662 70.4677 59.3908C70.4264 58.5128 70.4039 57.6347 70.4076 56.7642C70.4076 55.2745 70.4264 53.7849 70.569 52.3027C70.7041 50.8731 71.053 49.4847 71.2219 48.0588C71.372 46.7755 71.6459 45.3647 71.2331 44.0814C71.0755 43.5936 70.8129 43.2108 70.4977 42.8694C72.8879 43.6911 75.3307 44.3328 77.841 44.7118H77.8335Z" fill="#EDF3F5"/><path d="M94.5503 9.72918C91.3308 5.06881 85.8899 2.64857 80.284 3.1814C80.2014 3.14012 80.1076 3.10635 79.9988 3.09134C73.8037 2.2996 65.5036 1.8981 62.2729 8.57347C60.832 11.5528 60.7832 15.0537 60.9295 18.292C61.1097 22.2656 61.8526 26.1756 63.0609 29.9654C63.0609 29.9729 63.0684 29.9804 63.0721 29.9917C62.9558 30.7909 64.3029 31.0836 64.6668 30.2168C68.2015 21.7929 73.5748 14.2995 80.3478 8.19073C82.738 17.9242 86.9105 27.1174 92.6816 35.3237C92.9855 35.7552 93.4996 35.7477 93.8486 35.5263C94.0024 35.44 94.1337 35.3087 94.2125 35.1136C95.2557 32.5958 96.0362 30.0179 96.5652 27.365C96.5953 27.3013 96.6215 27.23 96.6365 27.1474C97.6572 21.3013 98.0924 14.8623 94.5465 9.73293L94.5503 9.72918Z" fill="#ACACAC"/><path d="M93.2223 33.286C87.834 25.3161 83.9503 16.4832 81.729 7.10992C81.6764 6.88478 81.5564 6.73844 81.4063 6.64463C81.2187 6.1831 80.5695 5.86415 80.0705 6.29942C73.2488 12.2318 67.8342 19.5113 64.0593 27.6913C63.3089 24.9859 62.7948 22.228 62.5959 19.4175C62.3858 16.4532 62.2732 13.2224 63.2526 10.3782C65.6428 3.43641 73.7703 3.90544 79.7102 4.6484C79.8341 4.74596 79.9992 4.79849 80.213 4.77973C85.4888 4.25816 90.6482 6.50204 93.5112 11.0461C96.0365 15.0573 96.0666 19.8453 95.4549 24.4156C95.4549 24.4268 95.4474 24.4381 95.4474 24.4493C95.0272 27.4887 94.288 30.423 93.2223 33.286Z" fill="#ACACAC"/><path d="M90.1152 25.2936C90.4341 24.9221 90.4266 24.1979 89.8338 23.9278C86.7456 22.5244 83.3911 22.2843 80.1416 23.2073C78.2166 22.3668 76.2129 22.3555 74.303 23.1735C71.106 21.9165 67.6876 21.8527 64.4381 23.0009C63.819 23.2186 63.7515 23.939 64.0366 24.3368C64.0216 24.378 64.0104 24.4231 64.0029 24.4718C63.3312 28.6257 64.8171 33.8414 70.0441 33.3348C74.4943 32.9033 76.2542 28.3405 75.1923 24.5206C76.4193 24.0403 77.7663 24.0178 79.0084 24.4643C77.59 28.1866 78.9371 32.9221 83.3535 33.7401C88.5167 34.6969 90.4492 29.6275 90.1377 25.4324C90.1377 25.3837 90.1227 25.3386 90.1152 25.2974V25.2936Z" fill="#DEDEDE"/><path d="M68.9489 31.7062C65.2941 31.2372 65.1403 27.3761 65.598 24.5243C65.6093 24.4418 65.6093 24.3705 65.598 24.3029C68.2584 23.5337 70.9376 23.6313 73.5604 24.5993C74.7649 27.8376 72.9225 32.2165 68.9451 31.7062H68.9489Z" fill="black"/><path d="M84.588 32.2129C80.5805 32.378 79.1246 27.8565 80.603 24.7345C83.2972 23.9953 85.9726 24.1304 88.5617 25.1248C88.5467 25.1923 88.5392 25.2636 88.5467 25.3462C88.7605 28.2279 88.269 32.059 84.588 32.2091V32.2129Z" fill="black"/><path d="M72.2802 27.0159C71.9274 26.2917 71.2107 26.4268 70.8017 26.9446C70.2314 27.6725 70.2839 28.9896 70.8918 29.6725C71.2895 30.119 72.0625 30.1303 72.3177 29.5112C72.6516 28.7082 72.6591 27.8039 72.2764 27.0121L72.2802 27.0159Z" fill="#ACACAC"/><path d="M84.5243 27.0159C84.1716 26.2917 83.4549 26.4268 83.0459 26.9446C82.4755 27.6725 82.5281 28.9896 83.1359 29.6725C83.5337 30.119 84.3067 30.1303 84.5618 29.5112C84.8958 28.7082 84.9033 27.8039 84.5205 27.0121L84.5243 27.0159Z" fill="#ACACAC"/><path d="M76.8805 33.8941C76.4977 32.5733 76.5278 31.2863 77.0043 29.9955C77.3608 29.0311 75.8561 28.4983 75.4959 29.4626C74.9293 30.9973 74.8542 32.6371 75.312 34.2093C75.5972 35.1887 77.1657 34.8847 76.8805 33.8941Z" fill="#ACACAC"/><path d="M80.7901 35.4097C80.0321 36.5504 78.5275 36.8206 77.4468 35.9463C76.655 35.3046 75.5181 36.4303 76.3173 37.0757C78.2198 38.6142 80.8051 38.2765 82.1709 36.2164C82.7413 35.3572 81.3567 34.5579 80.7901 35.4097Z" fill="#ACACAC"/><path d="M95.5796 95.0716C95.5233 94.869 95.4145 94.7264 95.2757 94.6363C93.2232 90.4337 90.3076 85.5857 85.0769 85.4769C83.1182 85.4357 81.0132 86.1974 79.8687 87.8559C79.5573 88.3099 79.3546 88.7977 79.2646 89.2893C77.9475 88.9928 76.5291 89.8934 76.5254 91.3943C76.5254 93.278 78.4616 93.9909 80 94.2423C80.1801 94.2723 80.3415 94.2423 80.4803 94.1823C80.7242 94.8502 81.1858 95.4318 81.8387 95.8183C82.0038 97.2329 83.0206 98.3286 84.424 98.5763C84.454 98.7301 84.4916 98.8877 84.5441 99.0453C85.1369 100.831 87.3095 101.582 88.7992 100.524C89.5759 101.357 90.7579 101.845 92.06 101.661C95.1931 101.218 96.3188 97.7808 95.5796 95.0716Z" fill="#ACACAC"/><path d="M78.2965 91.8559C77.8425 91.2217 78.4654 90.5276 79.1446 90.9403C79.2534 91.0041 79.3584 91.0416 79.4598 91.0529C79.6511 91.4731 79.9551 91.8559 80.3753 92.1636C80.334 92.3362 80.3078 92.5088 80.2928 92.6814C79.5986 92.5726 78.7281 92.46 78.2965 91.8596V91.8559Z" fill="black"/><path d="M92.6002 99.841C90.9417 100.708 88.6453 99.2031 89.7109 97.312C90.2175 96.4152 88.8366 95.6084 88.3301 96.5052C87.8273 97.3908 87.7635 98.3063 87.9999 99.1206C86.9868 100.104 85.8686 98.7604 85.9736 97.6872C86.0937 96.4527 87.1781 95.6384 88.18 95.0906C89.0805 94.5953 88.2775 93.2144 87.3732 93.7097C86.0749 94.4227 84.8742 95.5746 84.4877 96.9705C83.2757 96.6628 83.2457 95.0718 83.786 94.1112C84.2701 93.2482 85.1144 92.6666 85.9286 92.1488C86.7954 91.5972 85.9924 90.2163 85.1219 90.7679C83.8986 91.5484 82.6641 92.5578 82.1125 93.9049C81.6435 93.1394 81.9399 92.0775 82.5703 91.3345C83.2307 90.5578 84.1688 90.0813 85.0581 89.6272C85.9736 89.1582 85.1669 87.7811 84.2513 88.2464C83.0731 88.8505 81.8461 89.5897 81.0656 90.6741C79.9512 89.5747 81.7185 88.0475 82.5102 87.6272C83.2007 87.2595 84.0112 87.0832 84.7917 87.0682C86.4352 87.0306 87.9323 87.6985 89.2044 88.6967C91.5571 90.539 92.8704 93.3007 94.1312 95.9386C94.4051 97.4283 94.0524 99.083 92.5927 99.8448L92.6002 99.841Z" fill="black"/><path d="M111.925 67.2146C106.728 62.1753 101.272 57.4099 95.6025 52.9033C95.4486 52.7833 95.2835 52.727 95.1222 52.7195C94.7507 52.2091 93.7001 52.3667 93.6513 53.196C93.4224 57.3311 93.1935 61.4661 92.9608 65.6011C92.7657 69.1358 92.0265 73.1733 93.1485 76.6179C94.1053 79.5522 96.5856 81.3008 98.9683 83.0456C102.139 85.3683 105.31 87.6835 108.48 90.0062C106.143 93.0718 102.676 95.0831 98.7919 95.5258L99.0246 94.9705C99.1672 94.629 98.9233 94.2538 98.6569 94.0699C97.1784 93.0381 95.2272 92.0625 93.5912 93.3833C92.0153 94.6553 91.929 97.3119 91.5537 99.1318C91.171 100.974 90.1766 103.477 91.1297 105.297C91.9027 106.768 93.5575 107.271 95.0922 106.97C95.4561 106.899 95.6513 106.535 95.6775 106.201L95.7863 104.88C105.963 104.783 118.634 103.931 123.782 93.5409C128.991 83.0306 118.747 73.8375 111.921 67.2221L111.925 67.2146Z" fill="#ACACAC"/><path d="M94.1428 105.484C91.2723 105.552 92.8895 100.565 93.2422 98.8652C93.4186 98.0097 93.5162 97.0829 93.7938 96.2536C94.5368 94.0285 95.8801 94.2311 97.2722 95.0641C97.0733 95.5407 96.8745 96.0172 96.6718 96.4938C95.5349 98.3699 94.8107 100.4 94.488 102.55C94.413 102.659 94.3604 102.79 94.3492 102.948C94.2816 103.792 94.2141 104.633 94.1428 105.477V105.484Z" fill="#DEDEDE"/><path d="M115.959 99.5259C110.03 103.124 102.743 103.218 96.0005 103.274C96.2519 101.083 96.9761 99.0531 98.1318 97.1732C103.681 96.8205 108.653 93.6423 111.227 88.6779C111.7 87.7661 110.323 86.9556 109.847 87.8712C109.7 88.1526 109.546 88.4228 109.389 88.693C106.605 86.6555 103.82 84.6179 101.036 82.5842C98.2106 80.5167 95.0099 78.618 94.3795 74.8769C93.7941 71.3986 94.4583 67.5487 94.6534 64.0515C94.8298 60.8996 95.0024 57.7476 95.1787 54.5957C100.5 58.8583 105.633 63.3498 110.537 68.089C115.164 72.558 121.002 77.4886 123.021 83.815C125.058 90.2014 121.385 96.2389 115.963 99.5296L115.959 99.5259Z" fill="#DEDEDE"/><path d="M145.618 106.131C146.137 105.393 146.278 104.402 146.241 103.056C146.208 101.832 146.182 100.608 146.167 99.3806C146.063 90.8575 145.537 82.3418 144.595 73.8707C144.124 69.6351 143.545 65.4107 142.866 61.2047C142.395 58.2858 141.969 55.1778 140.396 52.6075C138.857 50.0891 136.364 48.9245 133.523 48.5091C127.407 47.6116 120.969 48.4238 115.072 49.7961C113.213 50.2264 111.185 50.5268 109.486 51.4355C106.437 53.0674 105.002 56.6762 104.093 59.8213C102.88 64.0124 102.517 68.4408 102.098 72.7654C101.638 77.524 101.334 82.2936 101.174 87.0707C101.037 91.1654 100.948 95.2637 101.056 99.3584C101.108 101.406 101.211 103.453 101.378 105.493C101.456 106.453 101.141 107.83 101.831 108.608C103.222 110.177 105.94 109.792 107.802 109.936C113.269 110.363 118.647 110.73 124.132 110.422C130.475 110.066 136.999 109.194 143.148 107.574C144.372 107.251 145.147 106.791 145.614 106.123L145.618 106.131Z" fill="#ACACAC"/><path d="M103.137 107.147C103.103 107.099 103.07 107.047 103.04 106.98C102.929 106.725 102.921 106.435 102.914 106.153C102.706 97.8862 102.577 89.6487 103.066 81.3853C103.463 74.6796 103.774 67.6363 105.436 61.1049C106.367 57.4442 107.91 53.4646 111.83 52.2703C119.118 50.0487 126.918 48.6467 134.466 50.3528C138.327 51.2244 139.888 54.4994 140.645 58.0785C142.269 65.7745 143.044 73.7635 143.682 81.5967C144.306 89.2037 144.517 96.8181 144.554 104.447C144.561 105.853 140.548 106.153 139.499 106.361C137.852 106.687 136.198 106.973 134.54 107.259C131.109 107.856 127.645 108.256 124.17 108.46C120.695 108.664 117.204 108.675 113.729 108.483C111.986 108.386 110.25 108.242 108.514 108.049C107.116 107.893 104.843 107.993 103.585 107.444C103.392 107.359 103.244 107.299 103.129 107.147H103.137Z" fill="#DEDEDE"/><path d="M103.296 77.5129C103.262 78.0359 103.233 78.5626 103.203 79.0818C116.592 80.4726 130.1 80.1611 143.397 78.1768C143.352 77.6539 143.304 77.1309 143.252 76.6042C130.033 78.5848 116.607 78.8889 103.296 77.5129Z" fill="black"/><path d="M103.588 73.3254C103.548 73.8484 103.507 74.3713 103.47 74.8943C116.644 76.1293 129.918 75.5582 142.921 73.2178C142.866 72.6949 142.806 72.1719 142.751 71.6453C129.848 73.9782 116.673 74.5382 103.592 73.3254H103.588Z" fill="black"/><path d="M103.01 82.5459C102.962 83.4658 102.921 84.3856 102.884 85.3054C116.562 85.6726 130.237 84.9642 143.808 83.2247C143.767 82.6795 143.73 82.138 143.686 81.5928C143.656 81.2256 143.623 80.8584 143.593 80.4912C130.141 82.2344 116.566 82.9057 103.01 82.5422V82.5459Z" fill="black"/><path d="M134.32 50.935C131.843 45.965 127.107 43.5023 121.614 43.8954C116.488 44.2626 111.462 46.1171 110.086 51.5432C108.584 57.4664 109.471 64.3427 110.806 70.2102C110.932 70.7628 111.744 71.0076 112.126 70.5588C113.569 68.8601 115.609 67.7104 117.842 67.5101C118.995 67.4062 120.152 67.5657 121.25 67.9329C122.719 68.4262 123.375 69.5945 124.878 68.8119C125.957 68.2519 126.925 67.5546 128.067 67.1021C130.293 66.2268 132.892 66.1267 133.901 68.7229C134.146 69.3497 135.303 69.5871 135.426 68.7229C136.264 62.8035 137.095 56.4909 134.324 50.9313L134.32 50.935Z" fill="#ACACAC"/><path d="M130.886 64.9916C128.319 64.732 126.027 66.1154 123.98 67.5063C123.976 67.5063 123.973 67.4989 123.965 67.4952C120.104 65.0473 115.338 65.4627 112.03 68.4038C111.091 63.7491 110.706 58.9053 111.221 54.1839C111.511 51.5357 112.327 48.9098 114.685 47.3965C116.685 46.117 119.284 45.6459 121.614 45.4679C126.687 45.0822 130.897 47.352 133.082 51.9919C135.199 56.4908 134.806 61.5831 134.161 66.4084C133.304 65.5999 132.177 65.114 130.886 64.9842V64.9916Z" fill="black"/><path d="M107.506 42.8569C108.659 43.0275 109.798 42.7568 110.714 42.0966C111.745 41.3585 112.42 40.2532 112.617 38.9885C112.821 37.6793 112.483 36.3107 111.686 35.2314C111.015 34.3227 110.024 33.6699 108.901 33.3992C108.767 33.3658 108.634 33.3398 108.496 33.3213C107.339 33.1507 106.1 33.4177 105.188 34.0371C104.606 34.4302 104.175 34.9384 103.916 35.5503C103.686 36.0844 103.556 36.6853 103.526 37.3269C103.474 38.5175 103.771 39.734 104.361 40.7614C105.01 41.8926 106.156 42.6566 107.502 42.8532L107.506 42.8569Z" fill="#ACACAC"/><path d="M105.585 40.0382C106.49 41.5923 108.611 41.9557 110.009 40.8468C111.393 39.7489 111.567 37.8945 110.673 36.4257C110.202 35.6506 109.449 35.0238 108.567 34.7753C107.688 34.5305 106.705 34.7641 105.974 35.2908C105.154 35.8805 104.876 36.7521 104.913 37.735C104.947 38.5361 105.177 39.3447 105.581 40.0382H105.585Z" fill="black"/><path d="M135.742 42.0966C136.896 42.2673 138.034 41.9965 138.951 41.3363C139.982 40.5982 140.657 39.493 140.853 38.2283C141.057 36.919 140.72 35.5504 139.922 34.4711C139.251 33.5624 138.261 32.9097 137.137 32.6389C137.003 32.6055 136.87 32.5796 136.733 32.561C135.575 32.3904 134.337 32.6575 133.424 33.2769C132.842 33.67 132.412 34.1781 132.152 34.7901C131.922 35.3242 131.792 35.925 131.763 36.5667C131.711 37.7572 132.007 38.9737 132.597 40.0011C133.25 41.1323 134.392 41.8964 135.739 42.0929L135.742 42.0966Z" fill="#ACACAC"/><path d="M133.821 39.2777C134.726 40.8318 136.847 41.1952 138.246 40.0863C139.629 38.9884 139.804 37.134 138.91 35.6652C138.439 34.8901 137.686 34.2633 136.803 34.0148C135.924 33.77 134.941 34.0036 134.21 34.5303C133.391 35.12 133.113 35.9916 133.15 36.9745C133.183 37.7756 133.413 38.5842 133.817 39.2777H133.821Z" fill="black"/><path d="M129.834 53.7612C129.867 53.2864 129.897 52.8117 129.904 52.3332C129.923 51.2985 129.882 50.2637 129.793 49.2326C129.711 48.2534 129.782 47.2557 129.782 46.2729C129.789 45.8389 129.685 45.2529 129.938 44.8746C130.194 44.4926 130.791 44.3405 131.165 44.0957C131.696 43.7545 132.204 43.3465 132.678 42.9311C133.728 42.015 134.629 40.9469 135.364 39.7637C137.711 35.9806 138.743 31.0775 138.516 24.7686C138.312 19.0532 136.777 8.94266 128.788 5.42661C128.695 5.38581 128.614 5.35614 128.528 5.32647C128.447 5.2968 128.365 5.26713 128.257 5.21891C127.067 4.62919 125.758 4.22863 124.382 4.02464C122.038 3.67971 119.508 3.92821 117.075 4.74046C113.229 6.02374 110.073 9.00942 108.192 13.1486C106.738 16.3457 105.978 20.1881 105.934 24.5757C105.874 30.1354 106.742 34.7938 108.511 38.4285C109.342 40.1383 110.503 41.6256 111.957 42.857C112.45 43.2724 112.977 43.6581 113.522 43.9993C113.841 44.1996 113.852 44.3368 113.889 44.7967L113.908 45.023C113.948 45.4421 113.986 45.8612 114.019 46.2803C114.086 47.1371 114.13 47.9864 114.152 48.7987C114.201 50.5418 114.145 52.2331 113.993 53.8279C113.986 53.8873 119.753 70.8852 124.352 69.4128C126.581 68.7007 128.413 65.7595 128.944 63.5082C129.556 60.9083 129.626 58.1674 129.722 55.5081C129.745 54.9221 129.789 54.3398 129.83 53.7575L129.834 53.7612Z" fill="#ACACAC"/><path d="M108.626 34.6639C109.587 38.0873 111.393 40.9691 114.331 42.8458C114.494 42.9979 114.635 43.1574 114.764 43.328C114.868 43.4726 114.954 43.6284 115.032 43.7879C115.176 44.2737 115.291 44.767 115.354 45.2714C115.354 45.2937 115.365 45.3122 115.376 45.3271C115.655 48.0717 115.673 50.8311 115.436 53.5868C115.84 56.9582 121.978 68.0479 124.326 67.447C125.969 67.0279 126.726 65.0066 127.171 63.5712C127.816 61.4979 128.105 59.3171 128.313 57.1659C128.454 55.7009 128.58 54.2322 128.584 52.7597C128.584 51.3392 128.376 49.941 128.35 48.5242C128.324 47.2483 128.191 45.8352 128.721 44.6113C129.315 43.239 130.702 42.8124 131.766 41.9C132.853 40.9691 133.776 39.8527 134.485 38.6102C136.38 35.287 136.977 31.3371 137.1 27.5651C137.326 20.5812 135.957 11.1198 129.307 7.29217C129.007 7.09559 128.903 7.03254 128.691 6.90273C125.654 5.03715 122.012 4.92588 118.551 5.79376C115.106 6.65794 112.276 8.88329 110.451 11.9098C108.656 14.8843 107.799 18.341 107.488 21.7755C107.098 26.0556 107.465 30.5248 108.626 34.6639Z" fill="black"/><path d="M129.307 7.29217C129.007 7.09559 128.903 7.03254 128.692 6.90273C125.654 5.03715 122.012 4.92588 118.551 5.79376C115.106 6.65794 112.276 8.88329 110.451 11.9098C108.656 14.8843 107.799 18.341 107.488 21.7755C107.15 25.4992 107.384 29.3639 108.215 33.032C110.796 27.4761 112.094 21.4602 112.002 15.3516C118.692 16.5904 125.483 16.201 131.933 14.239C132.33 20.2845 133.962 26.1038 136.773 31.452C136.959 30.1576 137.059 28.8484 137.1 27.5614C137.326 20.5775 135.957 11.1161 129.307 7.28846V7.29217Z" fill="#EDF3F5"/><path d="M122.156 44.6002C120.817 44.6744 118.807 44.1922 118.332 45.8501C117.865 47.4857 119.263 50.1598 119.86 51.6211C120.825 53.9874 122.019 56.5614 123.703 58.5086C124.949 59.9514 126.566 60.2778 128.005 59.7437C128.131 58.8832 128.235 58.0227 128.317 57.166C128.458 55.701 128.584 54.2322 128.587 52.7598C128.587 51.3393 128.38 49.941 128.354 48.5242C128.328 47.2483 128.194 45.8352 128.725 44.6113C128.925 44.1477 129.222 43.7953 129.563 43.4912C127.133 44.0735 124.667 44.4667 122.16 44.6039L122.156 44.6002Z" fill="#EDF3F5"/><path d="M130.441 0.97579C125.03 -0.704348 118.751 -0.0997954 113.525 1.91044C111.029 2.87104 108.485 4.21738 107.261 6.72831C106.256 8.78676 106.515 11.1048 108.047 12.8109C108.188 12.9667 108.347 13.0335 108.503 13.0409C113.866 14.862 119.637 14.632 125.193 14.046C127.745 13.7753 130.326 13.523 132.856 13.0965C134.703 12.785 136.687 12.0135 137.321 10.0738C138.746 5.73433 133.983 2.07734 130.441 0.979499V0.97579Z" fill="#ACACAC"/><path d="M134.985 10.8228C134.061 11.509 132.685 11.6388 131.595 11.7834C129.251 12.095 126.903 12.3954 124.552 12.6291C119.359 13.1446 114.004 13.3152 108.997 11.6425C106.66 8.86821 109.382 5.59324 111.941 4.21352C114.538 2.81156 117.62 2.00672 120.542 1.69517C125.238 1.19447 132.259 1.39846 135.1 5.91963C136.02 7.38465 136.646 9.58403 134.989 10.8191L134.985 10.8228Z" fill="#ACACAC"/><path d="M107.131 10.8339C105.462 11.4867 104.668 13.5192 104.056 15.051C103.185 17.2244 102.703 19.5573 102.64 21.8976C102.517 26.5189 104.36 30.6915 107.12 34.3151C107.131 34.3299 107.146 34.341 107.157 34.3559C107.443 34.7268 108.095 34.7935 108.374 34.3559C108.492 34.2261 108.559 34.0629 108.533 33.8848C109.813 28.9409 110.543 23.8671 110.621 18.7525C110.655 16.6866 111.385 9.16494 107.127 10.8302L107.131 10.8339Z" fill="#ACACAC"/><path d="M108.978 22.4133C108.733 25.7142 108.199 28.978 107.431 32.1937C103.797 26.5784 102.617 19.2088 106.552 13.293C106.983 12.3139 107.758 12.1396 108.874 12.7627C108.982 13.293 109.041 13.8271 109.052 14.3649C109.104 15.0919 109.119 15.8299 109.134 16.5606C109.175 18.5115 109.119 20.4661 108.974 22.4133H108.978Z" fill="#ACACAC"/><path d="M141.241 19.4685C141.175 17.4582 140.763 15.448 139.843 13.6455C139.213 12.4067 138.152 10.4373 136.987 9.59162C136.079 8.93143 134.617 8.77937 133.749 9.59904C132.333 10.938 133.137 13.7234 133.338 15.3553C134.054 21.1634 135.348 26.8715 136.82 32.5313C136.806 32.7501 136.902 32.9281 137.058 33.0431C137.425 33.4028 138.13 33.2137 138.285 32.7204C138.285 32.7167 138.289 32.7093 138.293 32.7056C139.88 28.4997 141.386 24.0193 141.238 19.4647L141.241 19.4685Z" fill="#ACACAC"/><path d="M134.535 12.7145C134.45 11.7168 134.698 9.71396 136.212 10.86C136.635 11.179 136.909 11.88 137.202 12.3065C139.279 15.3515 140.043 18.3891 139.657 22.0795C139.375 24.7944 138.611 27.4389 137.706 30.0166C136.846 26.5969 136.067 23.1551 135.466 19.6798C135.066 17.3729 134.732 15.0474 134.535 12.7145Z" fill="#ACACAC"/><path d="M117.523 26.1001C117.126 25.4103 116.425 25.5957 116.062 26.1335C115.55 26.8938 115.695 28.1845 116.344 28.815C116.767 29.2267 117.531 29.1859 117.738 28.5554C118.013 27.7432 117.953 26.8456 117.523 26.0964V26.1001Z" fill="#ACACAC"/><path d="M128.476 25.3766C128.15 24.6496 127.438 24.7646 127.018 25.2616C126.432 25.9663 126.444 27.2644 127.026 27.958C127.404 28.4105 128.168 28.4438 128.439 27.843C128.791 27.0604 128.828 26.1666 128.472 25.3729L128.476 25.3766Z" fill="#ACACAC"/><path d="M123.168 25.2504C122.96 24.1971 121.351 24.6422 121.558 25.6955C121.703 26.4224 122.367 28.5996 121.495 28.9964C120.52 29.4415 121.365 30.8806 122.337 30.4392C124.24 29.5713 123.476 26.823 123.168 25.2541V25.2504Z" fill="#ACACAC"/><path d="M120.946 30.7842C120.234 30.3206 119.066 30.8769 118.417 31.2441C117.575 31.7188 116.893 32.4458 116.473 33.3211C116.143 34.0109 116.803 34.6489 117.486 34.3336C118.18 34.0146 118.869 33.6957 119.563 33.3767C120.09 33.1319 120.794 32.9391 121.191 32.4866C121.607 32.0081 121.51 31.2181 121.013 30.8324C120.991 30.8176 120.969 30.799 120.946 30.7842Z" fill="#ACACAC"/><path d="M123.424 30.5803C124.111 30.0833 125.309 30.5803 125.973 30.9141C126.837 31.3481 127.556 32.0379 128.016 32.891C128.38 33.5623 127.753 34.2336 127.056 33.9517C126.347 33.6661 125.642 33.3842 124.934 33.0987C124.396 32.8835 123.68 32.7203 123.265 32.2901C122.824 31.8339 122.883 31.0402 123.361 30.6322C123.384 30.6137 123.402 30.5989 123.424 30.584V30.5803Z" fill="#ACACAC"/><path d="M123.884 35.5206C122.675 35.8099 121.466 35.4761 120.568 34.6156C119.882 33.9554 118.833 35.0013 119.522 35.6615C120.806 36.8929 122.553 37.3602 124.277 36.9485C125.204 36.726 124.811 35.2981 123.884 35.5206Z" fill="#ACACAC"/><path d="M156.089 80.5653C155.054 74.9204 153.047 69.4349 150.232 64.4316C147.054 58.7792 142.469 52.8115 137.121 49.696C136.761 49.4846 136.461 49.6107 136.29 49.8704C136.057 50.0336 135.927 50.3117 136.06 50.6678C136.09 50.7457 136.123 50.8198 136.153 50.8977C136.194 50.9163 136.235 50.9348 136.276 50.9608C136.55 51.1314 136.724 51.3984 136.906 51.6581C137.336 52.2737 137.811 52.856 138.241 53.4717C138.508 53.85 138.312 54.4175 137.941 54.6437C139.565 57.6888 141.316 60.7078 141.468 64.1274C141.438 64.2016 141.416 64.2795 141.409 64.3685L139.747 82.6609C134.113 81.0252 128.146 81.6706 122.998 84.4745C122.935 84.4857 122.868 84.5042 122.801 84.5339C121.603 85.0531 120.405 85.5761 119.211 86.0953C116.451 82.1676 112.594 78.3214 108.047 76.5931C108.017 76.582 107.988 76.5745 107.958 76.5634C107.683 74.0673 107.405 71.5675 107.127 69.0714C107.086 68.7154 106.856 68.4817 106.586 68.3741C105.914 65.1177 106.055 61.8056 106.968 58.6716C106.771 58.4268 106.686 58.0893 106.838 57.7333C107.424 56.3684 107.991 54.6734 109.174 53.6646C109.378 52.9933 108.499 52.2515 107.88 52.8597C98.3222 62.2025 92.7699 75.4248 93.0073 88.8214C93.1186 95.0783 94.3611 102.181 99.4608 106.387C104.093 110.207 110.706 110.57 116.258 108.805C120.045 107.603 123.343 105.463 126.321 102.9C131.291 105.894 137.173 107.603 142.978 106.517C148.055 105.563 152.851 102.374 155.12 97.656C157.639 92.419 157.105 86.1176 156.089 80.5653Z" fill="#ACACAC"/><path d="M110.754 79.8643C113.491 81.715 115.82 84.0554 117.734 86.7369C114.86 87.9868 111.985 89.2367 109.107 90.4866C109.011 90.3716 108.881 90.2901 108.736 90.2493C108.265 89.5668 107.79 88.8844 107.319 88.2056C107.242 88.0907 107.141 87.9979 107.03 87.9275C106.815 87.6975 106.489 87.6011 106.144 87.831C105.628 88.176 105.072 88.5877 104.449 88.7063C103.907 88.8102 103.34 88.736 103.384 88.087C103.421 87.59 103.633 87.5121 104.052 87.2747C105.228 86.6034 106.618 86.251 107.957 86.1361C108.959 86.0471 109.007 84.4708 107.994 84.5561C106.667 84.671 104.234 85.0494 102.787 86.1027C102.739 86.073 102.687 86.0433 102.631 86.0211C101.304 85.4981 103.826 84.1221 104.211 83.9849C105.22 83.6251 106.259 83.5139 107.323 83.5621C108.339 83.6066 108.376 82.0303 107.36 81.9821C105.543 81.9005 103.225 82.2417 101.789 83.5176C101.712 83.4248 101.611 83.347 101.482 83.2876C100.391 82.8129 102.754 81.4257 103.091 81.2848C104.13 80.8472 105.22 80.7581 106.329 80.8842C107.338 80.9992 107.368 79.4192 106.366 79.3043C104.656 79.1077 102.698 79.46 101.248 80.48C101.422 78.4252 103.688 77.4053 105.673 77.6056C107.542 77.791 109.237 78.8369 110.758 79.8643H110.754Z" fill="black"/><path d="M119.029 105.968C113.758 108.649 106.76 109.384 101.6 106.016C98.7372 104.147 96.9977 101.324 95.9629 98.1863C96.0037 98.1752 96.0482 98.1604 96.089 98.1418L107.175 93.0606C107.223 93.0384 107.268 93.0124 107.308 92.9827L123.079 86.1287C123.197 86.1287 123.324 86.0953 123.45 86.0248C128.379 83.2394 134.102 82.6015 139.52 84.2371C139.55 84.2445 139.576 84.2482 139.602 84.2519C139.576 84.5375 139.55 84.8231 139.524 85.1087C137.788 87.972 135.811 90.6535 133.59 93.1496C133.512 93.1904 133.434 93.2461 133.36 93.3314C129.187 98.1381 124.785 103.038 119.025 105.964L119.029 105.968Z" fill="black"/><path d="M147.899 103.042C141.438 106.747 133.735 105.378 127.552 101.799C129.595 99.9113 131.498 97.8454 133.315 95.7796C133.323 95.7721 133.33 95.7684 133.338 95.7573C135.901 93.0758 138.185 90.1754 140.177 87.0525C144.828 89.5746 149.738 91.4995 154.875 92.7828C154.093 96.9479 152.057 100.653 147.895 103.038L147.899 103.042Z" fill="black"/><path d="M108.288 54.6883C103.559 59.5024 99.8909 65.2698 97.5543 71.6083C95.4513 77.3164 94.4128 83.4027 94.5983 89.4853C94.6688 91.8256 94.9247 94.3069 95.5255 96.6695C98.5891 95.2638 101.656 93.8581 104.72 92.4524C104.783 92.3894 104.861 92.3301 104.965 92.2855C105.803 91.9221 106.645 91.5549 107.483 91.1914C107.108 90.6499 106.73 90.1047 106.356 89.5632C105.451 90.1047 104.434 90.5164 103.362 90.2308C102.35 89.9601 101.527 89.0032 101.634 87.9202C101.656 87.7087 101.705 87.5122 101.779 87.3267C100.896 86.763 100.61 85.7059 100.926 84.7527C99.7945 84.2075 99.5052 83.0652 99.902 82.0415C99.8279 81.9525 99.7685 81.8375 99.7426 81.6892C99.0379 77.5426 102.862 75.7178 106.341 76.1703C106.077 73.7929 105.814 71.4118 105.551 69.0306C105.473 68.3222 106.226 68.1405 106.719 68.4335C106.867 64.2387 107.249 60.0625 107.869 55.9122C107.999 55.5005 108.14 55.0926 108.284 54.6846L108.288 54.6883Z" fill="#DEDEDE"/><path d="M155.039 84.2148C153.578 71.267 146.746 59.7137 136.739 51.4243C137.162 55.8565 140.051 59.7842 141.509 64.0495C141.865 63.3856 143.074 63.5154 142.992 64.4055C142.362 71.3301 141.735 78.2546 141.105 85.1829C141.131 85.3164 141.123 85.4573 141.06 85.6057C141.053 85.6465 141.049 85.6873 141.038 85.7244C145.5 88.1389 150.199 89.9636 155.113 91.2135C155.369 88.94 155.302 86.5626 155.039 84.2148Z" fill="#DEDEDE"/></svg>