<svg version="1.2" xmlns="http://www.w3.org/2000/svg" viewBox="0 0 130 129" width="130" height="129">
	<defs>
		<clipPath clipPathUnits="userSpaceOnUse" id="cp1">
			<path d="m0 0h130v129h-130z"/>
		</clipPath>
		<linearGradient id="g1" x2="1" gradientUnits="userSpaceOnUse" gradientTransform="matrix(0,-118.539,23.461,0,16.904,121.155)">
			<stop offset="0" stop-color="#ffffff"/>
			<stop offset=".35" stop-color="#efefef"/>
		</linearGradient>
		<linearGradient id="g2" x2="1" gradientUnits="userSpaceOnUse" gradientTransform="matrix(0,-4.47,28.772,0,110.355,47.999)">
			<stop offset="0" stop-color="#ffffff" stop-opacity="0"/>
			<stop offset="1" stop-color="#5f5f5e" stop-opacity=".57"/>
		</linearGradient>
		<linearGradient id="g3" x2="1" gradientUnits="userSpaceOnUse" gradientTransform="matrix(0,-29.284,28.8,0,81.556,31.901)">
			<stop offset="0" stop-color="#ffffff" stop-opacity="0"/>
			<stop offset="1" stop-color="#5f5f5e" stop-opacity=".57"/>
		</linearGradient>
	</defs>
	<style>
		.s0 { fill: #ffffff } 
		.s1 { fill: url(#g1) } 
		.s2 { fill: #f4f4f4 } 
		.s3 { fill: #efefef } 
		.s4 { opacity: .6;fill: url(#g2) } 
		.s5 { fill: #dadcdb } 
		.s6 { fill: #bec0bf } 
		.s7 { opacity: .4;fill: url(#g3) } 
		.s8 { fill: #aeaeae } 
	</style>
	<g id="Clip-Path" clip-path="url(#cp1)">
		<g>
			<g>
				<path class="s0" d="m81.56 64.76v-62.14h-61.01c-8.49 0-15.37 6.89-15.37 15.4v100.55l3.55 2.59 3.93-2.87 3.94 2.87 3.94-2.87 3.93 2.87 3.94-2.87 3.94 2.87 3.93-2.87 3.94 2.87 3.94-2.87 3.93 2.87 3.94-2.87 3.94 2.87 3.94-2.87 3.94 2.87 3.3-2.41v-53.99h14.4z"/>
				<path class="s1" d="m13.26 18.02c0-8.51 6.89-15.4 15.38-15.4h-8.09c-8.49 0-15.37 6.89-15.37 15.4v100.55l3.55 2.59 3.93-2.87 3.94 2.87 0.11-0.08-3.45-2.51z"/>
				<path class="s2" d="m110.36 64.76c-7.95 0-14.4-6.47-14.4-14.43v-6.8h28.8v6.8c0 7.96-6.46 14.43-14.4 14.43z"/>
				<path class="s3" d="m99.97 50.33v-6.8h-4.01v6.8c0 7.97 6.44 14.43 14.4 14.43q1.02-0.01 2-0.14c-7-0.98-12.39-7-12.39-14.29z"/>
				<path class="s4" d="m124.75 43.53h-28.79v4.47h28.79z"/>
				<path class="s5" d="m111.13 64.76h-43.97v-15.41h28.66c0 8.47 6.85 15.34 15.31 15.34z"/>
				<path class="s5" d="m81.56 2.62c7.94 0 14.4 6.46 14.4 14.42v47.72h-28.8v-47.72c0-7.96 6.45-14.42 14.4-14.42z"/>
				<path class="s6" d="m84.07 2.84q-1.22-0.22-2.51-0.22c-7.95 0-14.4 6.45-14.4 14.42v47.72h5.03v-47.72c0-7.1 5.13-13.01 11.88-14.2z"/>
				<path class="s7" d="m95.96 17.04c0-7.96-6.45-14.42-14.4-14.42-7.95 0-14.4 6.45-14.4 14.42v14.86h28.8z"/>
				<path class="s8" d="m58.59 31.9h-41.73v2.59h41.73z"/>
				<path class="s8" d="m60.14 87.9h-43.28v1.05h43.28z"/>
				<path class="s8" d="m60.14 37.26h-43.28v1.05h43.28z"/>
				<path class="s5" d="m16.91 45.65h24.58v-4.57h-24.58z"/>
				<path class="s5" d="m16.91 66.89h10.57v-4.58h-10.57z"/>
				<path class="s6" d="m16.91 84.11h15.22v-2.29h-15.22z"/>
				<path class="s6" d="m44.91 84.11h15.22v-2.29h-15.22z"/>
				<path class="s5" d="m16.91 56.27h17.23v-4.57h-17.23z"/>
				<path class="s5" d="m60.14 62.31h-10.57v4.58h10.57z"/>
				<path class="s5" d="m60.14 51.7h-17.23v4.57h17.23z"/>
				<path class="s8" d="m60.14 91.19h-43.28v2.59h43.28z"/>
				<path class="s6" d="m60.14 100.85h-14.13v3.77h14.13z"/>
				<path class="s5" d="m27.05 29.92h-2.08l-1.62-2.34h-0.1-1.69v2.34h-1.95v-8.4h3.64c2.24 0 3.65 1.16 3.65 3.05 0 1.26-0.64 2.18-1.73 2.65zm-2.12-5.35c0-0.93-0.6-1.47-1.79-1.47h-1.59v2.93h1.59c1.19 0 1.79-0.55 1.79-1.46zm5.44 3.79h4.57v1.56h-6.51v-8.4h6.35v1.56h-4.41v1.82h3.9v1.51h-3.9zm-6.74 16.71c-2.6 0-4.55-1.81-4.55-4.35 0-2.53 1.95-4.34 4.56-4.34 1.45 0 2.67 0.53 3.46 1.49l-1.25 1.15q-0.85-0.98-2.11-0.98c-1.57 0-2.69 1.1-2.69 2.68 0 1.59 1.12 2.69 2.69 2.69q1.26 0 2.11-0.99l1.25 1.15c-0.79 0.97-2.01 1.5-3.47 1.5zm6.71-1.71h4.57v1.56h-6.5v-8.4h6.35v1.56h-4.42v1.83h3.9v1.51h-3.9zm6.12 1.56v-8.4h1.94v8.4zm-13.21 6.6c2.24 0 3.65 1.16 3.65 3.05 0 1.87-1.41 3.03-3.65 3.03h-1.69v2.32h-1.95v-8.4zm-0.1 4.5c1.18 0 1.78-0.54 1.78-1.45 0-0.93-0.6-1.47-1.78-1.47h-1.59v2.92zm6.65 3.9v-6.82h-2.69v-1.58h7.32v1.58h-2.69v6.82z"/>
			</g>
		</g>
	</g>
</svg>