<svg width="75" height="76" viewBox="0 0 75 76" fill="none" xmlns="http://www.w3.org/2000/svg"><path d="M0.984375 25.8584L31.9102 1.91113C35.2006 -0.636901 39.7984 -0.636901 43.0889 1.91113L74.0146 25.8584L37.499 54.1348L0.984375 25.8584Z" fill="#6B6B6B"/><rect x="24.1484" y="35.6191" width="27.3862" height="27.3862" rx="2" fill="black"/><rect x="1" y="-1" width="14.736" height="16.2575" rx="7.36801" transform="matrix(1 0 0 -1 29.4736 41.9873)" stroke="black" stroke-width="2"/><circle cx="37.5" cy="43.9873" r="2.28218" fill="white"/><path d="M1.15088 25.7295L0.984375 25.8584V25.7295H1.15088Z" fill="#9EA1A8"/><path d="M73.8478 25.7295L74.0143 25.8584L44.8464 48.445C40.521 51.7945 34.4777 51.7944 30.1522 48.445L0.984375 25.8584V66.0481C0.984375 71.0897 5.07145 75.1768 10.1131 75.1768H64.8855C69.9272 75.1768 74.0143 71.0897 74.0143 66.0481V25.8584V25.7295H73.8478Z" fill="#9EA1A8"/></svg>