<svg width="160" height="137" viewBox="0 0 160 137" fill="none" xmlns="http://www.w3.org/2000/svg">
<mask id="mask0_509_10856" style="mask-type:alpha" maskUnits="userSpaceOnUse" x="0" y="0" width="160" height="137">
<rect width="160" height="137" fill="#D9D9D9"/>
</mask>
<g mask="url(#mask0_509_10856)">
<path d="M77.6497 82.8459C75.6404 80.5357 73.1207 79.9394 70.3861 78.8971C68.8119 78.2954 67.8717 77.6453 67.3291 76.0013C67.0068 75.0236 67.1572 74.1371 66.9799 73.1539C66.765 71.972 66.3621 71.0801 65.3843 70.3441C63.7779 69.1353 61.7149 69.0171 60.5759 67.1421C59.7217 65.7399 59.539 64.0315 59.7862 62.4304C60.0064 61.0067 60.6726 59.6529 60.6941 58.1969C60.7156 56.741 60.0816 55.3925 59.3886 54.1461C58.0079 51.6425 55.6762 49.746 53.0276 48.7091C50.0243 47.5325 46.7579 47.3875 43.5935 47.8495C42.0032 48.0805 40.4398 48.462 38.9033 48.9294C38.033 49.1926 36.9477 49.1282 36.1042 49.5687C34.6752 50.3155 35.3789 51.5512 34.9008 52.7868C34.5838 53.6088 33.9069 54.2213 33.1923 54.7102C32.091 55.4677 30.7479 55.8062 29.4316 55.9835C26.7239 56.3434 24.0054 55.9566 21.2977 55.876C18.0366 55.7739 14.48 56.4186 12.3041 59.0941C10.1014 61.8072 11.2833 64.703 12.5942 67.5289C14.0878 70.7417 14.2758 73.9383 10.1283 74.9752C8.31774 75.4265 6.61466 75.6951 5.00829 76.7105C-0.654315 80.294 -1.71269 88.1324 2.84855 93.0429C5.22319 95.6002 8.26401 96.1052 11.4606 97.04C14.3833 97.8942 15.9628 99.2642 16.2744 102.429C16.4248 103.965 16.4517 105.502 17.4295 106.786C19.7987 109.896 25.37 110.133 28.8944 110.444C33.8585 110.874 38.8173 110.444 43.6418 109.284C52.5924 110.82 60.361 108.199 68.2478 104.105C73.7922 101.231 80.6744 97.4859 80.5132 90.2922C80.4541 87.5844 79.4172 84.8982 77.6389 82.8513L77.6497 82.8459Z" fill="#ACACAC"/>
<path d="M70.0161 101.966C62.2421 106.173 54.5272 109.456 45.6948 108.489C45.7861 108.134 45.5175 107.688 45.0555 107.812C40.274 109.133 35.3528 109.735 30.394 109.466C27.9549 109.337 25.5158 109.004 23.1357 108.462C19.8317 107.709 17.7579 106.474 17.3872 102.821C17.1024 100.054 16.49 97.9745 13.8091 96.7228C10.8005 95.3205 7.32989 95.4065 4.66513 93.2306C0.990353 90.2328 -0.105634 84.9678 2.40332 80.8685C3.63362 78.8592 5.53548 77.3012 7.79192 76.5867C9.29084 76.1139 10.9241 76.0655 12.3532 75.3618C14.8836 74.1207 15.2113 71.4506 14.3893 68.9739C13.8091 67.2224 12.654 65.6698 12.2457 63.8646C11.4774 60.4746 14.1691 58.1537 17.1132 57.3102C22.8349 55.6662 35.3904 60.2328 36.5401 50.8256C40.9187 49.23 45.5766 48.0212 50.2453 48.9828C55.0805 49.9768 59.1851 53.4635 59.6364 58.4492C58.7983 61.2214 58.0515 64.2622 59.3248 67.0129C59.8352 68.1196 60.5766 68.9792 61.6135 69.6293C63.9344 71.0853 65.5139 70.6501 65.9921 74.1368C66.3628 76.8231 66.6583 78.408 69.3499 79.6168C72.3262 80.9491 75.1575 81.293 77.2689 84.0759C79.3158 86.7729 80.1163 90.5122 78.9075 93.7357C77.4301 97.6791 73.5511 100.054 70.0322 101.961L70.0161 101.966Z" fill="#ACACAC"/>
<path d="M40.4193 67.6046C40.4677 67.2339 40.4891 66.8686 40.43 66.4979C40.3011 65.6866 39.7424 65.1333 39.3394 64.4509C38.915 63.7364 38.5013 63.0165 38.1038 62.2912C37.3033 60.846 36.5511 59.3739 35.8419 57.875C34.429 54.8987 33.2041 51.831 32.1725 48.7042C30.1095 42.4452 28.8362 35.9338 28.3796 29.3579C28.2238 27.0746 28.1647 24.7805 28.2023 22.4918C28.2023 22.4596 28.1915 22.4381 28.1862 22.4112C29.4379 20.7673 30.8563 19.2683 32.4465 17.9521C33.333 17.216 34.9018 16.3511 34.4344 14.9435C33.8111 13.0685 31.544 14.0033 29.9483 15.0724C29.9913 12.7999 29.8785 10.5327 29.5185 8.28159C29.3036 6.94384 29.2768 4.06956 27.9229 3.25832C25.9351 2.06563 25.6718 5.25151 25.747 7.7336C25.3871 7.17486 25.0056 6.63224 24.592 6.10574C23.9849 5.33747 23.0608 3.95137 21.8735 4.25223C21.1267 4.44564 20.8044 5.18704 20.8258 5.89621C19.7352 5.78339 18.838 6.66985 18.838 7.79807C18.838 8.75437 19.3162 9.69993 19.8803 10.5703C18.462 9.89334 16.7804 9.43131 15.9906 10.4736C15.3459 11.3278 16.0014 12.2196 16.6783 12.7784C17.8602 13.7454 19.0959 14.6587 20.3047 15.5882C20.3047 15.6097 20.3047 15.6312 20.3101 15.658C20.7291 16.9796 21.1428 18.3013 21.5619 19.6229C21.5458 19.6659 21.5189 19.7035 21.5135 19.7572C19.0099 35.966 20.0415 52.5992 24.7263 68.3299C25.8115 71.9724 26.9827 75.7278 28.6052 79.1716C29.4272 80.9122 30.7059 82.8625 32.9247 82.5294C35.4229 82.1533 36.7875 79.1125 37.7008 77.13C38.5121 75.3732 39.1084 73.5304 39.5758 71.6554C39.8176 70.683 40.0217 69.7052 40.2098 68.7274C40.2796 68.3567 40.3656 67.9807 40.4193 67.5992V67.6046Z" fill="#ACACAC"/>
<path d="M39.2694 66.896C39.2963 67.0786 39.307 67.2613 39.2963 67.4547C39.1727 69.002 38.7268 70.6674 38.3078 72.1664C38.0767 72.9937 37.8081 73.8157 37.5073 74.6216C37.3515 75.0407 37.1849 75.4597 37.0076 75.868C36.8841 76.1581 36.4919 76.7008 36.4919 77.0016C35.9707 78.0922 35.2992 79.7577 34.2999 80.4991C30.9367 82.9973 29.7172 78.9089 28.9328 76.9479C26.5957 71.108 24.8121 65.0371 23.5442 58.8802C21.7927 50.3648 21.0836 41.6345 21.4005 32.9472C21.508 30.0246 21.7498 27.1073 22.0882 24.2008C22.2601 22.7073 22.7437 21.2406 22.6899 19.7255C22.6362 18.2696 21.9378 16.9748 21.508 15.6156C21.6262 15.4222 21.6262 15.175 21.3844 14.987C20.6269 14.4014 19.8748 13.8158 19.1172 13.2302C18.7412 12.9401 18.3597 12.6446 17.9836 12.3545C17.7419 12.1664 17.1993 11.8925 17.0596 11.6023C16.6083 10.6514 18.623 11.3928 18.9507 11.511C19.7566 11.8011 20.498 12.2148 21.2071 12.693C21.5993 12.9616 21.9754 12.6553 22.0399 12.29C22.1634 12.1288 22.201 11.9139 22.0506 11.6883C21.6262 11.0597 21.2018 10.4311 20.8096 9.78106C20.6377 9.49095 19.1065 6.6489 20.7773 7.05721C20.8955 7.08945 21.003 7.07333 21.0943 7.0411C21.5886 8.39496 22.475 9.73271 23.0983 10.9791C23.4313 11.6507 24.4306 11.0597 24.1029 10.3935C23.6946 9.57691 23.2863 8.75492 22.8834 7.9383C22.6792 7.52999 22.4589 7.12168 22.2709 6.708C21.8089 6.19762 21.8626 5.94511 22.4374 5.96123C22.7544 5.7517 22.9908 5.81617 23.1359 6.16001C23.7806 6.60592 24.3071 7.6267 24.7315 8.28214C25.1667 8.95907 25.5535 9.6575 25.9134 10.3774C25.9349 10.4204 25.9618 10.4419 25.9887 10.4741C26.225 11.0221 27.1706 10.9738 27.0954 10.2968C26.9664 9.12025 26.7569 7.80936 26.9073 6.62741C26.9557 6.2406 26.9611 4.92434 27.6111 4.88673C27.7186 4.88136 28.1162 7.05184 28.1484 7.1969C28.7232 10.1034 28.8898 13.0314 28.777 15.9863C28.6803 16.0776 28.5943 16.1582 28.5245 16.2334C28.0141 16.7814 28.8361 17.6034 29.3465 17.0554C30.0019 16.3516 31.0066 15.4329 32.0058 15.2879C32.527 15.0031 32.8923 15.2234 33.0965 15.9594C32.9299 16.0991 32.7634 16.2442 32.5968 16.3839C32.21 16.6955 31.8124 16.9963 31.431 17.3133C29.8085 18.6779 28.3955 20.2359 27.1169 21.9283C26.9772 22.1163 26.9772 22.299 27.0631 22.4494C27.0631 22.4655 27.0524 22.4816 27.0524 22.4977C26.9342 29.0683 27.6326 35.6603 29.1154 42.0643C30.6036 48.4845 32.8816 54.7165 35.8848 60.5833C36.4704 61.733 37.0882 62.8666 37.7329 63.9895C38.2433 64.8813 39.1083 65.8215 39.2802 66.896H39.2694Z" fill="black"/>
<path d="M75.9647 56.2621C77.8612 54.0701 79.6932 51.2549 78.0492 48.386C77.2702 47.0268 75.9271 46.1994 74.5464 46.1994C74.3906 44.6951 72.8917 43.6475 71.425 44.2599C70.0442 44.8348 69.7058 46.4734 70.474 47.6339C69.8293 48.069 69.4049 48.8051 69.4694 49.6754C68.3519 49.8957 67.4762 50.8627 67.5783 52.0876C67.5783 52.1253 67.5998 52.1467 67.6051 52.179C67.2022 52.3401 66.8476 52.6356 66.6166 53.0278C65.6603 54.6342 66.579 56.6596 68.0457 57.573C68.137 57.632 68.223 57.6535 68.3089 57.6589C68.6044 58.6797 69.3028 59.5823 70.2968 60.0712C70.3182 60.0819 70.3397 60.0819 70.3612 60.0873C71.8494 63.7352 72.4296 67.5497 72.0858 71.3426C72.0482 71.7563 67.3687 72.1754 66.8584 72.2237C64.9726 72.3903 63.0761 72.3956 61.1904 72.2398C59.3691 72.0948 57.4941 71.4017 55.7051 71.3373C54.8508 71.305 54.55 71.8423 54.002 72.5568C50.9719 76.511 48.651 83.3663 53.2015 87.0786C57.7144 90.7588 66.5306 89.3029 71.5056 87.5299C76.964 85.5851 81.8583 81.2925 83.1101 75.4418C84.6574 68.2158 80.0532 61.7151 75.9755 56.2621H75.9647Z" fill="#ACACAC"/>
<path d="M71.8918 45.3134C72.6546 45.0071 73.3799 45.6142 73.4014 46.3879C73.4014 46.3879 73.4014 46.3932 73.4014 46.3986C72.9824 46.549 72.5741 46.7801 72.1926 47.1132C72.155 47.1454 72.1335 47.1884 72.1066 47.226C71.9294 47.2099 71.7521 47.2099 71.5801 47.226C71.564 47.1991 71.5533 47.1722 71.5318 47.1508C70.9892 46.5705 71.1127 45.625 71.8864 45.3187L71.8918 45.3134Z" fill="black"/>
<path d="M73.68 85.3322C68.963 87.7713 62.5321 88.733 57.2993 87.6263C53.7105 86.8688 51.497 84.2685 51.7872 80.4916C52.0182 77.4991 53.7535 74.8881 55.3599 72.449C60.8559 73.8297 66.5293 73.8458 71.934 72.5672C71.6976 74.2112 71.3 75.8444 70.7144 77.4562C70.4619 78.16 71.5794 78.4608 71.8319 77.7624C73.492 73.1689 73.8036 68.1188 72.6432 63.3695C72.3315 62.0855 71.9125 60.8229 71.4021 59.6034C71.3376 59.4476 71.2248 59.3401 71.0959 59.281C71.0475 59.2005 70.983 59.1252 70.8702 59.0661C69.5755 58.4214 68.9899 56.9548 69.4788 55.5955C69.7313 54.8917 68.6084 54.5855 68.3613 55.2893C68.2538 55.5901 68.1894 55.8964 68.1625 56.2026C67.6091 55.66 67.2545 54.881 67.4265 54.102C67.5285 53.6238 67.8025 53.2316 68.3129 53.2316C69.0167 53.2316 69.468 54.0214 69.7957 54.5371C70.1987 55.1657 71.2033 54.5855 70.8004 53.9515C70.29 53.1564 69.6937 52.3452 68.7374 52.1088C68.7374 52.098 68.7374 52.0927 68.7374 52.0819C68.646 50.9805 69.7366 50.5239 70.6446 50.9429C71.3699 51.276 71.7567 52.0121 71.977 52.7427C72.1919 53.4573 73.3147 53.151 73.0944 52.4365C72.7184 51.2008 71.8964 50.0511 70.6177 49.7234C70.6177 49.7126 70.6177 49.7073 70.6177 49.6912C70.5371 48.6543 71.5364 48.117 72.439 48.4931C73.3201 48.8638 73.68 49.7986 73.7338 50.6904C73.7767 51.4318 74.9426 51.4372 74.8942 50.6904C74.8244 49.5031 74.3247 48.305 73.3631 47.6657C75.555 46.2366 77.6449 49.1217 77.4569 51.2169C77.285 53.1081 75.9419 54.5532 74.733 55.8964C74.4161 56.2456 74.631 56.7022 74.9533 56.8527C77.3817 60.103 80.0035 63.6113 81.3358 67.5117C81.3251 67.5117 81.3197 67.5171 81.309 67.5224C81.4325 67.7051 81.5292 67.9039 81.5883 68.1188C81.6582 68.3605 81.685 68.613 81.7549 68.8602C81.7871 68.973 81.8032 69.0858 81.814 69.1986C82.0611 70.2678 82.2169 71.3584 82.2223 72.492C82.2492 78.1009 78.5045 82.8448 73.6747 85.3376L73.68 85.3322Z" fill="black"/>
<path d="M61.3403 100.727C60.4807 94.5648 59.6211 88.4025 58.7615 82.2349C58.192 78.1357 58.595 72.1293 54.0713 70.222C51.2937 69.0508 48.1992 69.0401 45.4055 67.7829C43.8529 67.0845 42.4023 66.1766 41.0699 65.1182C40.3393 64.5326 38.2279 61.7496 37.3199 62.2117C36.9976 62.3728 36.788 62.6898 36.6054 62.996C33.946 67.4337 31.6842 71.6457 30.4216 76.7281C29.1537 81.8212 28.7024 87.0916 28.6971 92.3244C28.6917 97.6701 28.5305 103.601 29.7608 108.839C30.7709 113.137 33.9406 115.491 37.841 117.161C45.0187 120.24 55.8281 122.523 60.8621 114.529C63.4356 110.44 61.9635 105.165 61.3457 100.727H61.3403Z" fill="#ACACAC"/>
<path d="M60.2171 113.171C58.9331 115.765 56.3274 117.501 53.6197 118.312C48.0001 119.994 40.8762 117.721 35.9388 114.884C29.7068 111.306 30.3138 104.021 30.0506 97.7139C29.551 85.8515 30.5449 73.5109 37.6795 63.6094C40.6129 66.7577 44.2823 69.0732 48.4836 70.1477C51.7232 70.9751 55.4141 70.8676 56.451 74.8432C57.1011 77.3253 57.23 80.0223 57.5846 82.5635C58.471 88.9245 59.3575 95.2856 60.244 101.652C60.7544 105.327 61.9578 109.657 60.2225 113.176L60.2171 113.171Z" fill="#DEDEDE"/>
<path d="M50.7623 95.6922C50.3594 86.8653 49.4783 78.0705 47.3669 69.4745C47.3078 69.2435 47.0553 69.0286 46.8082 69.0501C46.3032 69.0877 45.7981 69.1253 45.2931 69.1629C45.089 68.9802 44.7559 69.0232 44.5356 69.222C44.1219 69.2542 43.7082 69.2865 43.2999 69.3133C43.0206 69.3348 42.8487 69.5121 42.7788 69.7216C42.4779 69.7055 42.1878 69.8828 42.2308 70.2696C43.3537 79.8004 44.1219 89.3688 44.4819 98.9641C44.6538 103.568 44.6914 108.173 44.729 112.777C44.7451 114.641 45.9539 115.431 47.7054 114.926C47.8182 114.92 47.9203 114.883 48.017 114.824C48.0868 114.797 48.1567 114.775 48.2319 114.743C50.714 113.728 51.1223 111.015 51.1653 108.64C51.2351 104.337 50.9772 99.9795 50.7784 95.6815L50.7623 95.6922Z" fill="#ACACAC"/>
<path d="M45.8795 112.783C45.6324 112.385 45.8795 110.967 45.8795 110.478C45.8688 108.56 45.8473 106.642 45.8043 104.719C45.7237 100.883 45.5787 97.047 45.3745 93.211C44.9662 85.6089 44.3 78.023 43.4082 70.4639C43.7896 70.4317 44.1227 70.394 44.4236 70.3672C46.6532 84.7816 47.545 99.3518 47.1098 113.933C46.723 113.825 46.3147 113.476 45.8849 112.778L45.8795 112.783Z" fill="black"/>
<path d="M49.8707 110.304C49.774 110.825 49.1723 112.7 48.2805 113.555C48.6888 99.1188 47.7862 84.7044 45.5996 70.4297C46.0724 70.5855 46.4216 70.9938 46.7601 71.9232C47.3564 73.5726 47.523 75.5658 47.8131 77.2957C48.4739 81.2069 48.9037 85.1557 49.2045 89.1152C49.4678 92.5858 49.6343 96.0672 49.7525 99.5486C49.8707 102.965 50.5047 106.941 49.8707 110.31V110.304Z" fill="black"/>
<path d="M51.5907 66.8796C50.2529 64.419 48.1147 62.184 45.2404 61.6951C39.6315 60.7496 35.8278 66.4713 36.2737 71.5375C36.4618 73.6865 37.5148 75.8194 39.8357 76.1471C42.3339 76.5017 44.2143 74.6966 45.7347 72.9559C46.5459 75.0511 47.6849 77.5547 50.1885 77.9254C52.0581 78.1994 53.5678 77.0605 53.9331 75.2177C54.4542 72.612 52.7941 69.0877 51.5907 66.8796Z" fill="#ACACAC"/>
<path d="M51.5633 76.3623C51.1389 76.5504 50.6338 76.6148 50.102 76.5128C48.0658 76.1313 47.4265 74.1113 46.7818 72.435C46.6689 72.1396 46.4164 72.059 46.1747 72.102C46.0619 71.7151 45.4977 71.4573 45.1485 71.8656C44.3158 72.8326 43.0318 74.6163 41.6994 74.7936C39.776 75.1965 38.5081 74.8097 37.8312 73.2356C37.5894 72.6446 37.4551 72.0321 37.4283 71.4035C37.3692 70.6299 37.4122 69.8186 37.5465 69.0504C38.2234 65.1929 41.9573 61.5343 46.0995 63.1192C49.0704 64.2581 50.6714 67.2237 51.7191 70.0335C52.208 71.3498 52.901 72.6929 52.9225 74.1274C52.9386 75.1589 52.3906 75.997 51.5633 76.3623Z" fill="black"/>
<path d="M33.3601 55.5598C33.3923 57.2737 34.9396 58.8048 36.6588 58.7994C40.946 58.778 40.7687 52.0838 36.5513 52.2128C34.8375 52.2665 33.3225 53.8406 33.3601 55.5598Z" fill="#ACACAC"/>
<path d="M36.5899 53.3726C39.4212 53.292 39.3406 57.6706 36.6221 57.6329C35.5369 57.6168 34.5215 56.6068 34.5215 55.5162C34.5215 54.4256 35.4993 53.3994 36.5899 53.3672V53.3726Z" fill="black"/>
<path d="M55.2097 59.5188C55.2419 61.2326 56.7892 62.7638 58.5084 62.7584C62.7956 62.7369 62.6183 56.0428 58.4009 56.1718C56.6871 56.2255 55.1721 57.7996 55.2097 59.5188Z" fill="#ACACAC"/>
<path d="M58.4395 57.3315C61.2708 57.251 61.1902 61.6295 58.4717 61.5919C57.3865 61.5758 56.3711 60.5658 56.3711 59.4752C56.3711 58.3846 57.3489 57.3584 58.4395 57.3262V57.3315Z" fill="black"/>
<path d="M41.3815 62.4573C40.2211 66.3685 39.6785 72.8907 44.9865 73.9437C46.6305 74.2714 48.484 73.7342 49.4456 72.289C50.6974 70.4086 50.0259 67.9695 50.5255 65.8689C55.5273 64.4022 59.1967 60.3352 60.8299 55.4301C62.3611 50.8259 61.942 45.9423 60.8299 41.3005C59.8414 37.169 58.2511 32.3983 53.5287 31.4312C49.6122 30.6253 45.1853 32.1511 42.1713 34.6708C34.1609 41.3703 32.6942 55.5859 41.3815 62.4573Z" fill="#ACACAC"/>
<path d="M40.984 37.4439C44.0947 33.8443 51.0091 30.3952 55.5488 33.3125C58.1169 34.9618 58.8046 38.4808 59.4815 41.2369C60.2712 44.4872 60.6258 47.9149 60.325 51.1975C60.0402 54.292 59.1699 57.4081 57.311 59.9385C56.3869 61.1957 55.2319 62.2755 53.9156 63.1083C52.739 63.8551 51.1595 64.027 50.0635 64.72C47.3021 66.4715 50.8372 73.4987 45.4647 72.8164C43.0685 72.5155 41.9403 70.6136 41.7523 68.3679C41.661 67.2666 41.7738 66.1437 41.9618 65.0531C42.0746 64.3816 42.8536 62.6355 42.585 62.0553C42.5206 61.921 42.4077 61.8135 42.2895 61.7168C40.5005 60.1427 39.1413 58.273 38.2064 56.2315C35.4396 50.2089 36.3905 42.7519 40.984 37.4439Z" fill="black"/>
<path d="M59.4756 41.2361C58.8041 38.4746 58.1164 34.961 55.543 33.3117C51.0032 30.3944 44.0888 33.8489 40.9782 37.4431C37.3088 41.6874 35.971 47.2962 36.9918 52.4538C37.0348 52.4377 37.0831 52.4108 37.1315 52.3786C37.1798 52.341 37.2174 52.3034 37.2658 52.2658C37.3356 52.2282 37.3947 52.1798 37.4377 52.1154C39.0333 50.7507 39.995 48.7414 41.7249 47.581C42.6705 46.947 43.745 46.6193 44.8302 46.3077C45.26 48.6555 47.7582 48.822 49.9072 48.4889C52.8836 48.0323 55.414 46.5441 57.4072 44.3951C57.8907 48.6555 58.3743 52.9212 58.8578 57.1816C58.8578 57.1816 58.8578 57.187 58.8578 57.1924C59.6798 55.3012 60.1364 53.2436 60.3191 51.1913C60.62 47.9087 60.2654 44.4811 59.4756 41.2307V41.2361Z" fill="#D3DDE1"/>
<path d="M48.2633 64.6176C48.7146 64.811 49.1713 64.9614 49.6387 65.085C48.634 66.2132 48.8973 68.3998 48.6985 70.1727C47.3232 70.076 46.3185 68.8726 45.7598 67.6477C45.2762 66.5893 44.4489 64.4779 46.2057 64.0588C46.9363 63.8869 47.6294 64.3489 48.2633 64.6229V64.6176Z" fill="#D3DDE1"/>
<path d="M44.4661 49.9985C45.9006 49.6977 45.4332 52.3248 45.0302 52.948C44.7563 53.3671 44.1277 53.3348 43.9611 52.8352C43.7408 52.169 43.4024 50.2725 44.3963 50.0146C44.4178 50.0093 44.4446 50.0039 44.4661 49.9985Z" fill="#ACACAC"/>
<path d="M53.031 51.7606C54.4762 51.5135 53.9174 54.1191 53.493 54.7262C53.2083 55.1345 52.5797 55.0808 52.4292 54.5758C52.2305 53.8989 51.9618 51.997 52.9611 51.7714C52.9826 51.7714 53.0095 51.7606 53.031 51.7552V51.7606Z" fill="#ACACAC"/>
<path d="M50.0223 51.4965C50.436 53.1405 50.0546 54.7791 48.9747 56.0792C48.4966 56.6541 47.6638 55.8482 48.1366 55.2733C48.9425 54.3009 49.2165 53.0491 48.9102 51.8242C48.7276 51.0989 49.8397 50.7658 50.0223 51.4911V51.4965Z" fill="#ACACAC"/>
<path d="M47.7967 56.742C47.0768 56.6506 46.4052 56.339 45.8519 55.8662C45.0729 55.1947 44.5571 56.6829 44.4013 57.2094C44.1166 58.1925 44.1434 59.3208 45.2287 59.7989C46.8565 60.5134 47.9955 58.8104 48.3555 57.478C48.4629 57.0751 48.1621 56.7903 47.7967 56.742Z" fill="#ACACAC"/>
<path d="M39.4364 36.2235C36.6266 35.9549 35.1491 40.0487 34.6334 42.1172C33.7362 45.6845 34.2519 49.2787 35.869 52.5505C36.0195 52.8568 36.3096 52.8944 36.5514 52.7869C36.734 52.8621 36.9382 52.8353 37.1047 52.6257C39.4203 49.6709 40.9944 46.3346 41.5424 42.6007C41.8271 40.672 42.3751 36.5083 39.4364 36.2289V36.2235Z" fill="#ACACAC"/>
<path d="M40.5009 41.639C40.3774 42.8639 40.1248 44.0942 39.7649 45.2762C39.0826 47.5165 37.9973 49.5258 36.6059 51.3847C35.7087 49.3754 35.252 47.2747 35.3595 45.0451C35.4185 43.8578 35.6442 42.6598 36.0149 41.5315C36.1385 41.1501 37.2183 38.2382 37.8791 38.0448C39.2814 37.298 40.1625 37.3356 40.5923 39.7049C40.5923 40.3496 40.56 40.9943 40.5009 41.639Z" fill="#ACACAC"/>
<path d="M62.1033 36.2986C59.5944 30.1309 53.2763 26.7248 46.8186 29.1746C41.9189 31.0335 36.6754 37.9694 38.4214 43.5084C40.0493 48.6714 46.9476 44.137 50.805 41.0532C50.3161 41.7624 49.7412 42.4124 49.0589 42.9873C48.4035 43.5407 46.7756 44.0994 46.3405 44.9429C45.7602 46.055 46.5446 46.8125 47.5869 47.0704C51.5303 48.0374 56.0432 44.9912 58.4554 41.945C59.4708 46.8555 59.8738 51.7928 59.6642 56.8053C59.6427 57.3694 60.4862 57.6112 60.7441 57.1008C63.9837 50.7398 64.8326 43.0088 62.098 36.2932L62.1033 36.2986Z" fill="#ACACAC"/>
<path d="M59.4268 40.9039C59.3623 40.603 59.1313 40.4848 58.9003 40.4955C58.6478 40.3021 58.2448 40.2807 58.0138 40.6191C56.9071 42.2577 55.4995 43.6008 53.7534 44.5464C52.9046 45.0084 48.3863 46.9318 48.064 45.5511C47.9243 44.9547 50.6052 43.1818 51.1424 42.5425C52.0772 41.4357 52.7166 40.2054 53.2108 38.8516C53.4472 38.2069 52.5285 37.906 52.1793 38.4003C52.1524 38.4164 52.1256 38.4271 52.0987 38.4486C49.9712 40.3827 47.6503 42.0858 45.0715 43.3698C43.6585 44.0736 40.6607 45.8412 39.5486 43.2087C39.0167 41.9569 39.5378 40.0067 39.8709 38.7978C41.343 33.4898 45.9848 29.2993 51.685 29.5625C63.3057 30.0998 63.9128 44.9117 60.8774 53.8139C60.8451 49.4676 60.367 45.1696 59.4322 40.8985L59.4268 40.9039Z" fill="#ACACAC"/>
<path d="M32.2673 119.078C30.9457 118.45 29.3608 119.121 28.0875 119.497C25.6162 120.233 22.8494 120.765 20.4962 121.818C18.5943 122.667 17.8691 124.628 19.6957 126.1C21.0872 127.223 23.5263 127.201 25.2186 127.255C27.6094 127.336 29.9464 127.029 32.2727 126.492C32.8046 126.369 32.7777 125.74 32.4446 125.477C33.6695 123.596 34.9965 120.368 32.2727 119.078H32.2673Z" fill="#ACACAC"/>
<path d="M25.214 126.09C24.2684 126.057 22.4418 126.165 21.6037 125.681C17.7462 123.452 21.2169 122.812 22.3881 122.436C24.3813 121.797 26.3906 121.211 28.3945 120.615C29.8827 120.169 29.9203 119.981 31.43 120.964C32.9987 121.394 33.2512 122.307 32.1929 123.715C31.9189 124.193 31.618 124.66 31.2956 125.106C31.1936 125.257 31.1775 125.407 31.2151 125.536C29.2434 125.944 27.2448 126.165 25.2194 126.095L25.214 126.09Z" fill="#ACACAC"/>
<path d="M62.2128 104.729C61.509 103.44 60.1444 104.466 59.2955 104.987C58.5434 105.449 57.7697 105.879 56.9853 106.277C55.4273 107.066 53.8048 107.727 52.1393 108.254C48.8353 109.296 45.37 109.812 41.9048 109.763C39.7987 109.737 37.6981 109.5 35.6404 109.065C34.6089 108.85 33.5935 108.581 32.5889 108.265C31.8743 108.039 30.5903 107.104 30.1444 108.227C29.7307 109.275 30.3754 110.757 30.5903 111.783C30.8858 113.186 31.2189 114.583 31.5842 115.969C31.9388 117.306 32.331 118.633 32.7608 119.95C32.9757 120.605 33.196 121.261 33.427 121.916C33.5774 122.335 33.7977 123.598 34.1415 123.866C33.0939 123.06 32.2611 121.916 30.7139 122.443C26.5556 123.85 28.8389 129.072 29.7468 131.726C31.1598 135.841 32.9542 139.855 35.1892 143.589C36.8224 146.323 39.0735 150.111 42.1304 151.841C39.3045 159.695 35.3073 166.814 30.3862 173.535C28.9839 175.447 27.3883 178.058 28.8281 180.417C29.8006 182.007 31.8206 182.066 33.3786 181.373C35.2536 180.541 36.4947 178.671 37.8861 177.247C41.0774 173.997 44.0054 170.483 46.6433 166.771C50.4309 161.425 53.6168 155.655 56.1365 149.606C58.6508 143.562 60.5043 137.238 61.6325 130.786C62.7661 124.317 63.1744 117.725 62.8145 111.171C62.7446 109.919 62.6479 108.673 62.5244 107.426C62.4438 106.599 62.6372 105.67 62.288 104.885C62.2665 104.831 62.2396 104.783 62.2128 104.74V104.729Z" fill="#ACACAC"/>
<path d="M33.0887 180.234C32.9597 180.191 32.8093 180.207 32.6535 180.32C29.5213 179.794 28.6402 178.397 30.0156 176.135C30.3272 175.56 30.6818 175.018 31.074 174.496C31.8208 173.427 32.6374 172.407 33.3842 171.337C34.7864 169.328 36.0919 167.254 37.3007 165.127C39.627 161.033 41.5557 156.746 43.1567 152.324C44.2634 152.749 45.4722 152.899 46.7831 152.636C51.7043 151.658 52.8379 145.995 53.2624 141.821C53.9769 134.831 53.719 127.815 52.6768 120.874C52.5693 120.154 51.4679 120.46 51.5808 121.175C52.3652 126.423 52.6929 131.715 52.4672 137.018C52.2684 141.826 52.1932 152.244 44.9511 151.502C39.901 150.986 36.6023 144.051 34.507 140.048C32.3204 135.879 30.6764 131.495 29.473 126.955C29.5052 126.891 29.5321 126.821 29.5375 126.74C29.6664 125.344 30.3594 122.448 32.3526 123.796C33.1907 124.36 33.7549 125.118 34.7165 125.499C34.738 125.51 34.7595 125.499 34.7756 125.51C35.9092 128.293 37.1986 131.022 38.6492 133.682C38.9984 134.326 39.9869 133.752 39.6324 133.107C35.5117 125.548 32.6911 117.462 31.1976 108.995C41.1796 112.525 52.3222 111.112 61.1062 105.17C64.652 132.94 53.9608 161.603 33.0725 180.245L33.0887 180.234Z" fill="black"/>
<path d="M53.5853 137.352C53.5208 138.84 53.4187 140.328 53.2683 141.816C52.8385 145.991 51.7103 151.653 46.7891 152.631C45.4782 152.894 44.2694 152.744 43.1626 152.319C42.5341 154.055 41.8571 155.763 41.1211 157.45C43.9954 158.632 48.2343 155.715 50.3134 154.146C51.7264 153.082 53.0964 151.906 54.4234 150.665C56.6207 145.647 58.3399 140.43 59.5702 135.09C57.8027 136.207 55.7396 136.938 53.5853 137.352Z" fill="#D3DDE1"/>
<path d="M44.8586 151.48C44.8908 151.48 44.923 151.49 44.9553 151.496C51.9395 152.21 52.2565 142.54 52.4499 137.538C49.3016 137.979 46.0351 137.774 43.2415 137.119C39.0133 136.12 35.8811 133.487 33.0552 130.317C33.0069 130.264 32.9585 130.21 32.9102 130.156C35.1827 138.516 41.4524 145.151 49.9033 147.8C49.0706 150.163 47.0935 151.523 44.8532 151.48H44.8586Z" fill="#D3DDE1"/>
<path d="M70.7626 131.904C67.8346 122.663 64.9066 113.422 61.9786 104.182C61.8604 103.805 61.4575 103.65 61.1137 103.827C53.7533 107.588 45.4099 109.285 37.1631 108.662C36.0027 108.576 34.8422 108.442 33.6871 108.265C32.5858 108.098 31.3017 107.609 30.195 107.77C29.7759 107.835 29.3032 108.007 29.3891 108.539C31.1083 119.579 29.2387 134.842 41.5793 140.408C51.9912 145.104 62.8758 139.516 70.6176 132.473C70.768 132.339 70.8271 132.092 70.768 131.898L70.7626 131.904Z" fill="#ACACAC"/>
<path d="M67.953 133.253C66.3789 134.58 64.7134 135.81 62.9566 136.885C59.7815 138.83 56.2571 140.285 52.5448 140.764C45.0018 141.736 37.6468 138.566 34.3052 131.523C30.9742 124.506 31.6673 116.416 30.6035 108.883C40.9348 111.129 51.5723 109.818 61.044 105.16L68.2109 127.778C68.9093 129.976 69.9355 131.571 67.9477 133.248L67.953 133.253Z" fill="black"/>
<path d="M120.122 62.9611C120.225 61.237 122.039 61.1036 123.201 61.9203C124.243 62.6544 124.941 64.0849 125.651 65.0899C126.886 66.8473 128.091 68.6298 129.262 70.4321C133.943 77.6479 138.066 85.2069 141.661 93.0184C141.872 93.4772 141.42 93.8903 141.062 93.8223C141.057 93.8623 141.051 93.9022 141.037 93.95C140.52 95.5005 139.053 95.2986 138.106 94.2041C136.957 92.868 136.191 91.0055 135.301 89.4949C134.142 87.5137 132.977 85.5339 131.818 83.5527C129.494 79.5917 127.176 75.6344 124.852 71.6734C123.804 69.8816 122.751 68.0913 121.703 66.2995C121.204 65.4463 120.058 64.0817 120.122 62.9611Z" fill="#ACACAC"/>
<path d="M122.872 66.2088C123.655 67.5453 124.437 68.8817 125.227 70.2219C126.747 72.8083 128.263 75.4012 129.783 77.9876C131.303 80.5739 132.819 83.1668 134.339 85.7532L136.481 89.4065C136.928 90.1695 137.374 90.9273 137.821 91.6903C137.915 91.857 139.644 94.7711 140.014 93.6667C140.113 93.3655 140.393 93.2678 140.635 93.3122C138.314 88.2908 135.789 83.3631 133.017 78.5736C131.61 76.1432 130.14 73.741 128.621 71.3795C127.813 70.1322 126.995 68.8876 126.154 67.6602C125.484 66.6777 124.55 64.6409 123.59 64.0056C123.383 63.4631 123.002 63.3904 122.431 63.7865C121.534 63.6885 121.335 63.9016 121.824 64.417C121.836 64.8641 122.636 65.8005 122.869 66.1985L122.872 66.2088Z" fill="black"/>
<path d="M74.5244 45.0716C74.5426 45.0173 74.57 44.9769 74.596 44.9315C74.8618 43.8496 75.129 42.7728 75.3949 41.6909C74.6115 39.6026 74.7293 37.3859 75.664 35.3767C74.4941 33.9034 72.4317 30.7884 74.0871 29.3199C75.5295 28.0353 77.2246 29.8113 78.437 31.361C78.4075 30.9682 78.378 30.5755 78.36 30.1851C78.3213 29.3941 78.3203 28.56 78.82 27.898C79.4483 27.0639 80.5918 27.0019 81.1901 27.6965C81.4174 27.2618 81.7905 26.9414 82.3555 26.9259C84.0746 26.8675 84.637 29.1912 84.8147 31.2456C85.3747 29.6121 86.3301 28.0035 87.7937 28.6399C89.6918 29.4663 88.6493 32.899 87.9205 34.6165C88.6058 34.7222 89.249 35.0973 89.5312 35.7566C90.0244 36.9133 89.1277 38.0505 88.4641 38.916C87.5079 40.1571 86.3972 41.2313 85.1689 42.1945C84.6589 42.5959 84.9074 45.9047 84.9064 46.5692C84.9022 48.1732 85.0174 49.7944 85.4174 51.3551C86.0689 53.9072 87.6305 55.9389 90.0589 57.0062C93.0718 58.3327 96.2982 57.6748 99.4618 57.4125C101.169 57.2695 102.873 57.1329 104.58 56.9899C105.345 56.9258 108.866 56.1442 109.251 56.9186C109.371 57.1606 109.339 57.449 109.302 57.717C108.941 60.3674 108.338 62.9785 107.695 65.5787C107.329 67.0609 106.994 71.8558 105.265 72.0983C96.5039 73.3189 86.7987 74.8112 79.1297 69.1769C71.2241 63.376 72.0872 53.5088 74.5221 45.0832L74.5244 45.0716Z" fill="#ACACAC"/>
<path d="M108.283 57.7343C104.526 58.0473 100.761 58.3732 97.0045 58.6694C95.2408 58.8058 93.3783 58.9414 91.6036 58.6526C91.8344 63.2726 90.9391 67.736 88.9579 71.9274C94.3099 72.715 99.9768 71.8531 105.277 70.9914C106.277 66.5711 107.283 62.1546 108.283 57.7343Z" fill="#DEDEDE"/>
<path d="M80.9124 69.0894C83.1183 70.4474 85.4665 71.2784 87.8893 71.7379C87.8967 71.7249 87.894 71.7147 87.9014 71.7017C89.9429 67.5104 90.8024 63.0568 90.5392 58.418C89.9411 58.2503 89.3561 58.0296 88.7925 57.7263C83.2413 54.7035 83.56 47.5196 84.1196 42.1588C84.1347 42.012 84.2044 41.9054 84.286 41.8229C84.2868 41.6635 84.3463 41.4992 84.5055 41.3793C85.8679 40.3249 87.1327 39.0718 88.0915 37.6379C88.3057 37.3166 88.6632 36.8576 88.6208 36.4574C88.5444 35.7699 87.7077 35.5294 87.1532 35.6848C86.2606 35.9261 85.7099 36.9258 85.2703 37.6484C85.0766 37.9643 84.7276 37.9488 84.4961 37.7808C83.811 37.8178 83.1273 37.8599 82.4473 37.8954C81.7687 37.9361 81.7722 36.8757 82.4508 36.835C83.1679 36.7949 83.89 36.7534 84.6071 36.7133C85.1418 35.8771 85.7943 35.0311 86.7366 34.7105C86.7463 34.6859 86.7408 34.6655 86.752 34.646C87.1881 33.7486 88.527 30.4005 87.3131 29.8173C86.1562 29.2627 85.355 33.1627 85.2369 34.0015C85.183 34.3894 84.8228 34.4538 84.5444 34.3149C84.2338 34.4209 83.8192 34.2639 83.8286 33.8332C83.8519 32.8663 83.8176 31.9094 83.6578 30.9535C83.5788 30.4589 83.4702 29.9558 83.3337 29.4711C83.1544 28.8279 83.2628 28.2772 82.4591 28.6042C81.7825 28.8749 81.9478 28.94 81.9421 29.6277C81.9411 30.0287 81.94 30.4297 81.9389 30.8307C81.9371 31.715 81.9339 32.5942 81.9372 33.4771C81.9353 34.1583 80.8776 34.1532 80.8796 33.472C80.8827 32.0055 80.7076 30.406 80.8772 28.9274C80.7048 28.8972 80.5488 28.7856 80.4907 28.5708C79.7809 28.4553 79.4334 28.648 79.441 29.1619C79.3901 29.3788 79.3778 29.5962 79.3987 29.8156C79.3986 30.1999 79.4411 30.6001 79.4679 30.9826C79.5086 31.6194 79.5596 32.2533 79.617 32.8911C79.81 33.1189 79.7678 33.3883 79.6331 33.5784C79.4925 34.0501 78.6527 33.9806 78.5985 33.375C78.593 33.3545 78.5976 33.3313 78.5907 33.3057L77.3466 31.8414C77.0566 31.4971 75.9976 29.928 75.4751 30.0198C75.1799 30.2642 74.8834 30.5036 74.5883 30.748C74.5977 30.9651 74.6326 31.1752 74.6995 31.3822C74.805 31.7928 74.9772 32.2074 75.1528 32.5936C75.5519 33.4628 76.0814 34.2474 76.6995 34.9751C76.9239 35.2383 76.8367 35.5638 76.6418 35.7538C75.7905 37.5044 75.7149 39.3912 76.3429 41.2087C76.454 41.3159 76.5108 41.4652 76.4785 41.6496C76.5121 41.7942 76.48 41.9182 76.3959 42.0123L75.2529 46.6523C75.2268 46.7582 75.1757 46.8324 75.114 46.8875C73.0234 55.0279 72.8489 64.1217 80.9096 69.0792L80.9124 69.0894Z" fill="black"/>
<path d="M105.973 57.2219C109.341 55.8506 113.006 56.1498 116.524 56.6703C118.776 57.0056 121.547 56.6465 123.64 57.8703C126.253 59.3982 126.157 62.8277 126.692 65.4552C128.4 73.7987 128.511 82.4527 126.975 90.8221C125.281 100.025 121.934 111.573 111.763 114.279C106.876 115.577 101.704 114.626 97.1809 112.511C93.667 110.87 89.9412 108.363 90.4623 103.974C90.7646 101.427 92.1123 99.0429 93.0118 96.6808C94.2053 93.5641 95.2335 90.3823 96.0903 87.1535C97.7217 81.0201 98.4333 74.8443 99.1695 68.5575C99.7245 63.8074 101.215 59.1558 105.973 57.2219Z" fill="#ACACAC"/>
<path d="M100.271 68.1399C99.0222 77.8972 97.6909 87.2267 94.2049 96.5018C93.4692 98.4573 92.5338 100.362 91.913 102.358C90.8692 105.725 92.139 108.297 95.0199 110.148C99.4562 112.994 105.07 114.469 110.288 113.525C120.886 111.61 124.264 99.7459 125.956 90.5383C126.947 85.1543 127.177 79.6466 126.743 74.1923C126.519 71.3984 126.129 68.6217 125.593 65.8682C125.305 64.398 125.325 62.8721 124.995 61.4078C124.815 60.622 124.483 59.8389 123.885 59.3036C122.976 58.4951 121.755 58.5123 120.617 58.3918C119.427 58.2632 118.239 57.997 117.06 57.8052C114.692 57.4295 112.291 57.129 109.893 57.3708C103.75 57.9883 101.005 62.4135 100.272 68.145L100.271 68.1399Z" fill="#DEDEDE"/>
<path d="M97.426 85.5964C98.2043 82.1582 98.8 78.6926 99.3179 75.1821C108.36 77.5139 117.61 78.851 126.94 79.1725C126.958 82.983 126.641 86.7905 125.952 90.5393C125.932 90.6489 125.907 90.7599 125.889 90.8746C118.307 90.2178 110.789 88.9891 103.404 87.1205C101.653 86.677 99.4207 86.3143 97.4209 85.5977L97.426 85.5964Z" fill="black"/>
<path d="M88.4501 141.648C89.5654 139.963 91.163 138.746 93.3295 137.71C95.0109 136.905 97.0664 136.612 98.0181 138.595C99.0249 140.7 98.0695 143.867 97.569 145.984C96.9336 148.676 95.9958 151.301 94.8027 153.791C94.0504 155.362 92.8976 158.528 90.7178 158.562C89.312 158.586 88.5009 157.367 87.9618 156.222C86.3924 152.886 86.0674 148.95 86.9071 145.375C87.25 143.91 87.7565 142.686 88.4487 141.642L88.4501 141.648Z" fill="#ACACAC"/>
<path d="M67.4233 125.007C68.6588 121.094 70.8708 117.553 73.3405 114.278C76.1999 110.481 79.4394 106.976 82.9305 103.754C84.678 102.14 86.4833 100.598 88.3436 99.1182C89.299 98.3604 90.2637 97.6166 91.2442 96.8905C91.9643 96.3555 92.9219 95.383 93.8458 95.298C94.332 95.2544 94.7993 95.4849 95.2356 95.7019C100.42 98.2803 105.943 100.164 111.616 101.309C114.481 101.885 117.383 102.276 120.298 102.47C121.312 102.537 123.42 102.137 123.682 103.268C123.959 104.473 123.498 106.271 123.47 107.525C123.234 118.902 125.611 130.309 130.212 140.709C134.187 149.707 139.843 157.977 146.904 164.824C147.178 165.09 147.47 165.379 147.539 165.756C147.633 166.247 147.321 166.71 147.03 167.112C145.411 169.345 143.752 171.588 141.611 173.325C139.476 175.066 136.776 176.273 134.028 176.089C129.557 175.787 126.151 172.053 123.505 168.421C113.983 155.366 107.675 140.185 103.412 124.595C103.102 123.449 102.564 122.085 101.389 121.93C100.952 121.873 100.517 122.007 100.102 122.152C96.708 123.322 93.5323 125.119 90.7794 127.427C89.2359 128.723 87.7102 130.53 88.0673 132.519C88.3725 134.215 89.8612 135.147 91.3579 135.703C92.6104 136.166 95.7272 135.933 95.6763 137.708C95.6107 140.037 93.837 143.053 92.5976 144.947C91.826 146.121 90.9479 147.226 89.9601 148.229C89.5706 148.63 87.2749 151.112 86.7315 150.924C82.9668 149.63 79.1659 148.325 75.7453 146.279C72.3247 144.234 69.2673 141.366 67.6812 137.705C66.0051 133.833 66.1078 129.353 67.3269 125.318C67.3595 125.216 67.3907 125.109 67.4233 125.007Z" fill="#ACACAC"/>
<path d="M70.1965 139.919C74.0802 145.297 80.4687 147.814 86.609 149.574C86.7095 149.602 86.785 149.658 86.8401 149.72C90.7644 146.623 93.4372 142.398 94.6 137.528C90.887 136.972 85.5213 135.102 87.1767 130.312C87.9504 128.072 90.1934 126.428 92.0377 125.112C94.6026 123.282 97.4142 121.94 100.392 120.971C99.1862 120.336 97.8375 120.003 96.4137 120.021C95.7319 120.029 95.7353 118.969 96.4171 118.96C105.242 118.848 105.614 129.193 107.867 135.545C110.953 144.229 114.864 152.625 119.558 160.557C122.365 165.293 125.437 171.088 130.442 173.831C137.452 177.678 142.936 171.239 146.464 165.844C129.717 149.928 120.788 126.673 122.609 103.625C112.54 103.267 102.739 100.778 93.7081 96.302C83.948 102.816 75.0175 111.811 69.7215 122.388C66.8281 128.165 66.2393 134.451 70.1914 139.92L70.1965 139.919Z" fill="black"/>
<path d="M91.3054 122.57C92.7089 121.587 94.2744 120.494 95.9414 119.676C96.0041 119.868 96.161 120.023 96.4224 120.018C97.8411 120.002 99.1898 120.335 100.401 120.968C97.4229 121.938 94.6127 123.285 92.0464 125.109C90.2021 126.426 87.9642 128.068 87.1854 130.31C85.53 135.099 90.8957 136.97 94.6087 137.525C94.2831 138.892 93.8334 140.205 93.2735 141.454C88.0738 139.286 80.8494 135.985 83.7753 129.903C85.284 126.778 88.5462 124.491 91.3091 122.564L91.3054 122.57Z" fill="#D3DDE1"/>
<path d="M100.118 119.682C100.078 117.486 100.178 115.307 100.415 113.146C100.354 113.141 100.296 113.129 100.234 113.102C97.6326 111.862 98.3215 108.7 98.751 106.361C99.1968 103.94 99.9831 101.625 101.042 99.4288C101.375 99.5474 101.71 99.6711 102.041 99.7845C101.468 100.944 100.971 102.143 100.576 103.392C99.9566 105.354 98.1652 110.592 100.545 112.068C101.077 108.043 102.115 104.107 103.61 100.305C103.941 100.413 104.275 100.515 104.609 100.617C102.175 106.758 101.02 113.279 101.184 119.937C101.189 120.057 101.152 120.144 101.102 120.223C100.796 120.02 100.468 119.84 100.129 119.679L100.118 119.682Z" fill="#ACACAC"/>
<path d="M143.576 164.988C143.802 164.532 144.002 164.055 144.189 163.571C144.461 163.849 144.729 164.133 145.006 164.409C142.775 169.843 138.075 173.595 132.541 174.684C131.907 174.504 131.257 174.246 130.594 173.898C135.82 173.452 140.448 170.505 143.069 165.949C143.024 165.922 142.98 165.901 142.94 165.857C127.36 149.115 119.298 126.235 120.625 103.523C120.97 103.545 121.319 103.561 121.668 103.576C120.349 125.929 128.292 148.495 143.581 164.987L143.576 164.988Z" fill="#ACACAC"/>
<path d="M85.7558 149.32C85.3574 149.203 84.9576 149.08 84.5615 148.951C88.2532 145.823 90.8661 141.681 92.1246 136.982C92.4637 137.083 92.8103 137.17 93.149 137.249C91.9044 141.938 89.342 146.106 85.7558 149.32Z" fill="#ACACAC"/>
<path d="M116.313 98.232C116.464 97.6367 116.658 97.0792 116.896 96.5428C116.905 96.4527 116.943 96.371 117.009 96.2927C117.182 95.9386 117.375 95.6009 117.583 95.2758C116.948 94.6898 116.498 93.9166 116.342 93.1136C109.689 87.2705 106.677 78.8404 105.084 70.3342C104.488 67.1577 103.752 64.0082 103.706 60.76C103.684 59.2618 103.67 57.2069 104.678 55.9739C105.59 54.8545 108.508 54.4502 108.501 56.4502C108.481 62.4115 109.125 68.2373 110.889 73.9527C111.761 76.7745 112.865 79.5228 114.181 82.1643C114.863 83.5334 115.609 84.8745 116.406 86.1849C116.693 86.6565 118.321 89.8064 118.805 89.7963C120.004 89.7576 121.178 90.5767 121.316 91.8569C121.781 91.6106 122.262 91.3872 122.771 91.2056C124.364 90.638 126.058 90.3666 127.742 90.2574C131.339 90.0207 134.841 90.6879 138.457 90.2156C139.763 90.0439 141.019 89.9952 142.071 90.9515C143.219 91.9973 143.848 93.5563 144.31 95.0015C145.295 98.1002 145.497 101.339 145.962 104.535C145.978 104.657 145.998 104.772 146.015 104.894C146.465 107.654 147.447 111.083 146.146 113.762C144.755 116.614 141.469 116.87 138.682 117.289C134.77 117.88 130.77 118.774 126.809 118.961C124.069 119.092 121.4 118.43 119.609 116.219C117.584 113.725 117.023 110.215 116.473 107.147C115.948 104.232 115.574 101.149 116.308 98.2333L116.313 98.232ZM118.195 94.4241C118.794 93.6805 119.492 93.0251 120.291 92.4797C120.279 92.4337 120.268 92.3927 120.275 92.3361C120.408 90.9275 118.745 90.3616 117.832 91.3384C117.463 91.7346 117.323 92.1895 117.337 92.6468C117.379 92.7399 117.383 92.8375 117.358 92.9266C117.454 93.4827 117.768 94.018 118.195 94.4241Z" fill="#ACACAC"/>
<path d="M144.194 100.039C143.956 98.2091 143.768 96.3772 143.192 94.6115C142.84 93.5319 142.347 92.3367 141.427 91.6248C140.356 90.8 139.109 91.2084 137.893 91.3887C135.899 91.6861 134.058 91.4756 132.064 91.345C130.331 91.2314 128.587 91.2196 126.867 91.4156C123.691 91.7745 120.396 92.9066 118.561 95.6971C118.553 95.7049 118.55 95.7165 118.543 95.7295C122 95.3167 122.829 101.361 125.232 102.941C127.574 104.481 131.227 104.367 133.91 104.311C136.627 104.258 144.345 104.285 144.167 100.205C144.166 100.14 144.181 100.092 144.194 100.039Z" fill="black"/>
<path d="M145.553 112.237C146.255 109.265 145.18 105.592 144.578 102.516C143.127 104.577 139.481 105.161 136.422 105.324C137.613 109.064 137.54 112.943 136.195 116.633C139.722 116.256 144.673 115.945 145.553 112.237Z" fill="black"/>
<path d="M123.943 117.71C127.37 118.546 131.436 117.31 134.844 116.795C134.906 116.783 134.97 116.777 135.039 116.769C135.046 116.735 135.053 116.7 135.07 116.662C136.498 112.955 136.587 109.132 135.334 105.365C134.42 105.387 133.598 105.384 132.962 105.38C130.534 105.367 127.59 105.306 125.348 104.2C124.343 103.703 123.552 103.022 122.923 102.094C121.945 100.64 120.882 95.6741 117.883 97.0116C117.489 97.9249 117.233 98.9 117.106 99.8894C116.69 103.087 117.337 106.37 118.031 109.487C118.806 112.983 120.059 116.767 123.954 117.713L123.943 117.71Z" fill="black"/>
<path d="M107.457 56.2942C103.1 55.1003 105.222 64.7098 105.515 66.5629C106.009 69.7284 106.599 72.8844 107.461 75.9725C109.13 81.9223 111.894 87.4933 116.402 91.737C116.559 91.2059 116.879 90.7078 117.409 90.301C117.514 90.2232 117.622 90.1557 117.731 90.0933C110.698 80.2523 107.094 68.3976 107.457 56.2942Z" fill="black"/>
<path d="M125.843 94.4553C126.542 93.904 127.329 93.5323 127.978 92.9176C128.804 92.1455 129.379 91.216 129.78 90.1689C129.761 90.141 129.735 90.1261 129.717 90.0981C129.068 88.9507 127.365 89.0101 126.854 87.688C126.511 86.8036 126.92 85.8861 127.852 85.6287C129.91 85.0616 132.276 86.9526 133.446 88.5249C136.334 88.7818 138.154 85.858 137.44 83.1964C136.817 80.8893 134.809 79.214 132.808 78.1081C130.01 76.5643 126.837 75.819 124.205 73.956C121.614 72.1257 120.261 69.3293 120.156 66.185C120.103 64.6514 120.302 63.1208 120.613 61.6204C120.874 60.3368 121.154 59.0259 121.497 57.7639C121.737 56.8869 122.437 57.4113 123.024 57.5818C123.458 57.7062 123.887 57.8372 124.322 57.9667C125.975 58.475 127.614 59.0311 129.235 59.6415C132.471 60.8637 135.629 62.2993 138.673 63.9466C138.98 64.1106 139.284 64.2812 139.586 64.4466C141.281 65.3936 143.019 66.417 144.687 67.5471C144.761 67.5766 144.828 67.6242 144.882 67.681C148.088 69.8831 151.02 72.5105 152.888 75.8976C155.235 80.1487 155.677 85.486 152.796 89.591C149.342 94.5099 143.233 96.0239 137.686 97.205C137.637 98.8484 137.461 100.587 136.316 101.857C135.312 102.963 133.806 103.304 132.466 102.639C132.264 102.54 132.197 102.372 132.201 102.206C130.951 102.379 129.6 101.877 128.831 100.509C128.002 100.316 127.229 99.8061 126.724 98.9491C125.837 98.8869 124.971 98.3964 124.626 97.5454C124.129 96.3348 124.918 95.1829 125.843 94.4553Z" fill="#ACACAC"/>
<path d="M136.636 64.0641C132.118 61.7447 127.379 59.9241 122.499 58.5366C120.953 63.7688 119.787 69.7216 125.077 73.2762C128.327 75.4608 132.418 76.0786 135.469 78.5972C135.884 78.9405 136.284 79.3264 136.654 79.7425C140.084 76.5977 142.532 72.6972 143.859 68.2324C141.542 66.6631 139.063 65.3075 136.635 64.059L136.636 64.0641Z" fill="#DEDEDE"/>
<path d="M126.723 97.8286C126.865 97.7245 127.042 97.6929 127.192 97.7622C127.721 97.6523 128.234 97.4257 128.491 97.2025C129.06 96.714 129.451 96.0539 129.851 95.4297C130.217 94.8587 131.136 95.3843 130.765 95.9566C130.041 97.0854 129.208 98.2934 127.925 98.7718C129.111 100.043 131.279 99.8196 131.925 97.8992C132.141 97.2591 133.166 97.5308 132.947 98.1774C132.486 99.5482 131.38 100.358 130.187 100.559C131.587 101.894 134.07 101.074 134.084 98.8198C134.086 98.1386 135.144 98.1437 135.142 98.8249C135.136 100.281 134.346 101.329 133.308 101.862C134.69 102.378 135.599 101.369 136.056 100.164C136.303 99.5157 136.429 98.8283 136.533 98.1414C136.61 97.6156 136.388 96.6711 136.876 96.2921C137.311 95.9551 138.565 95.9398 139.116 95.8128C140.726 95.4492 142.324 95.0447 143.88 94.5034C146.996 93.4195 149.956 91.7356 151.896 88.9883C155.515 83.871 153.402 77.328 149.528 73.0393C148.122 71.4816 146.502 70.1077 144.77 68.8632C143.361 73.3886 140.835 77.3869 137.318 80.5719C138.399 82.1021 139.007 83.9468 138.521 85.8129C138.199 87.0526 137.435 88.1758 136.358 88.8677C135.607 89.3505 134.604 89.7699 133.675 89.6532C132.439 89.4933 131.93 88.1981 130.992 87.5405C130.317 87.0696 129.545 86.7239 128.722 86.6335C128.101 86.5652 127.417 86.8707 128.046 87.5957C128.317 87.912 128.787 88.0705 129.148 88.2528C129.776 88.5717 130.282 88.9236 130.636 89.5469C130.678 89.6181 130.697 89.6897 130.705 89.759C130.864 89.864 130.954 90.0539 130.867 90.2971C130.311 91.8251 129.431 93.1663 128.132 94.1707C127.398 94.7368 126.089 95.2003 125.729 96.0937C125.169 97.4856 125.869 97.8674 126.726 97.817L126.723 97.8286Z" fill="black"/>
<path d="M109.439 31.681C109.754 31.5301 110.22 31.6732 110.223 32.1332C110.257 36.8945 108.637 41.3286 105.579 44.9601C105.31 45.2799 104.799 45.0888 104.696 44.727C103.79 41.6011 102.901 29.3587 109.446 31.6848L109.439 31.681Z" fill="#ACACAC"/>
<path d="M109.158 32.7064C104.351 31.0194 104.824 39.7736 105.478 43.3898C107.813 40.2831 109.07 36.6113 109.158 32.7064Z" fill="#ACACAC"/>
<path d="M128.344 51.9144C127.768 53.3657 125.962 54.1776 124.498 53.6183C120.853 52.2211 123.143 46.5626 126.692 48.0297C128.135 48.628 128.919 50.4579 128.344 51.9144Z" fill="#ACACAC"/>
<path d="M126.29 49.0111C123.906 48.0303 122.572 51.7999 124.901 52.6416C125.829 52.978 127.018 52.437 127.371 51.5129C127.722 50.5837 127.214 49.3926 126.296 49.0148L126.29 49.0111Z" fill="black"/>
<path d="M108.46 48.264C107.883 49.7153 106.078 50.5272 104.613 49.9679C100.968 48.5707 103.259 42.9122 106.808 44.3793C108.25 44.9776 109.035 46.8075 108.46 48.264Z" fill="#ACACAC"/>
<path d="M106.403 45.3548C104.02 44.3741 102.685 48.1437 105.014 48.9853C105.943 49.3218 107.132 48.7808 107.484 47.8567C107.835 46.9275 107.327 45.7363 106.409 45.3586L106.403 45.3548Z" fill="black"/>
<path d="M119.306 55.2243C119.046 58.9396 117.424 64.6809 112.564 63.8702C111.056 63.6188 109.65 62.5662 109.294 61.0266C108.829 59.0224 110.179 57.1534 110.428 55.1978C106.633 52.3369 104.811 47.6804 104.987 42.9667C105.154 38.5412 107.074 34.5089 109.504 30.9043C111.669 27.6953 114.548 24.1339 118.883 24.8232C122.48 25.3936 125.762 28.1238 127.525 31.243C132.208 39.5396 128.914 52.1555 119.311 55.2229L119.306 55.2243Z" fill="#ACACAC"/>
<path d="M127.639 33.995C126.138 29.9213 121.354 24.7534 116.546 25.7783C113.83 26.3588 112.12 29.1431 110.662 31.2827C108.947 33.8049 107.551 36.6194 106.758 39.518C106.008 42.2513 105.757 45.1901 106.536 47.9495C106.923 49.3214 107.561 50.6092 108.417 51.7502C109.184 52.7669 110.472 53.4182 111.182 54.3678C112.975 56.7487 107.717 61.6119 112.511 62.7644C114.646 63.2742 116.217 62.0206 117.098 60.1575C117.53 59.2448 117.793 58.2517 117.98 57.2625C118.095 56.655 117.99 54.9103 118.405 54.5017C118.504 54.4035 118.632 54.3523 118.762 54.3062C120.788 53.5392 122.548 52.3772 123.993 50.9383C128.277 46.6842 129.851 40.0119 127.635 34.0015L127.639 33.995Z" fill="black"/>
<path d="M108.014 36.0287C108.748 34.3702 109.647 32.7768 110.661 31.284C112.119 29.1444 113.829 26.3601 116.546 25.7796C121.346 24.751 126.132 29.9239 127.638 33.9963C129.468 38.9637 128.708 44.3731 125.977 48.5037C125.918 48.4264 125.88 48.3269 125.875 48.2074C125.764 44.7187 125.649 41.2365 125.538 37.7478C124.329 38.8213 122.808 39.7154 121.228 38.9127C120.46 38.5219 120.033 37.8524 119.967 37.1236C117.735 38.5615 114.802 39.475 112.291 38.5069C110.837 37.9499 109.963 36.6383 110.385 35.3055C109.655 35.4371 108.817 35.8393 108.026 36.0311L108.014 36.0287Z" fill="#D3DDE1"/>
<path d="M112.747 54.8496C112.304 54.8706 111.86 54.8479 111.427 54.8057C111.923 56.0934 110.998 57.875 110.603 59.4528C111.806 59.8138 113.045 59.1112 113.915 58.2393C114.665 57.493 116.045 55.9563 114.683 55.0288C114.119 54.6433 113.378 54.8162 112.747 54.8496Z" fill="#D3DDE1"/>
<path d="M120.658 43.5973C119.528 42.8816 119.091 45.2724 119.231 45.9318C119.329 46.3772 119.875 46.5536 120.174 46.1818C120.576 45.6835 121.47 44.1737 120.706 43.6337C120.686 43.6225 120.672 43.6099 120.652 43.5987L120.658 43.5973Z" fill="#ACACAC"/>
<path d="M112.903 41.8822C111.674 41.3636 111.629 43.7909 111.883 44.425C112.051 44.8461 112.621 44.9282 112.854 44.514C113.168 43.9568 113.799 42.3207 112.96 41.9107C112.941 41.8995 112.923 41.8934 112.903 41.8822Z" fill="#ACACAC"/>
<path d="M118.597 48.2702C117.818 49.134 116.596 49.3492 115.544 48.8813C114.922 48.6048 114.52 49.5864 115.142 49.8629C116.647 50.532 118.343 50.1231 119.438 48.9103C119.892 48.4034 119.048 47.7698 118.597 48.2702Z" fill="#ACACAC"/>
<path d="M114.997 42.5242C115.303 41.9146 116.224 42.4452 115.911 43.0512C115.773 43.33 114.647 46.0882 115.407 46.1244C116.083 46.1557 116.084 47.2148 115.403 47.1848C113.136 47.0785 114.437 43.6308 114.997 42.5242Z" fill="#ACACAC"/>
<path d="M127.42 31.4247C127.549 30.9507 128.127 30.9427 128.386 31.2952C131.811 35.9083 131.951 42.2381 128.533 46.8839C128.328 47.1588 126.07 49.9595 125.927 48.3183C125.427 42.6017 125.933 36.9592 127.426 31.4285L127.42 31.4247Z" fill="#ACACAC"/>
<path d="M128.159 32.8445C127.007 37.5528 126.594 42.3415 126.907 47.1863C130.551 43.1109 130.992 37.4748 128.159 32.8445Z" fill="#ACACAC"/>
<path d="M104.613 28.6263C105.54 27.459 106.664 26.5349 107.922 25.805C106.844 25.7451 105.756 25.6056 105.298 24.5986C104.922 23.7778 105.292 23.041 105.948 22.5291C107.263 21.5038 109.581 21.4537 111.189 21.3266C113.272 21.1587 115.32 21.3243 117.347 21.737C117.119 21.2991 117.065 20.8142 117.384 20.2943C118.252 18.8685 120.526 20.0106 121.626 20.5367C126.402 22.8193 128.887 27.884 128.273 33.0619C128.24 33.3453 128.025 33.5021 127.802 33.5461C126.709 35.6199 124.627 37.6154 122.252 37.9005C121.548 37.9866 120.86 37.7499 120.688 37.0114C120.557 36.4483 120.865 35.8052 121.261 35.2042C120.057 35.8316 118.807 36.3505 117.485 36.7243C116.122 37.1091 113.77 37.8436 112.366 37.2241C110.545 36.4207 111.343 35.0579 112.395 33.9282C110.641 34.5065 108.822 34.8444 106.95 34.8619C105.578 34.8703 103.838 34.7698 103.134 33.3792C102.316 31.7722 103.656 29.8455 104.616 28.6365L104.613 28.6263Z" fill="#ACACAC"/>
<path d="M106.219 33.7797C106.942 33.8205 107.697 33.781 108.418 33.7125C109.655 33.5922 110.869 33.3245 112.049 32.9341C112.587 32.7559 113.081 32.4191 113.646 32.3214C114.143 32.2364 115.31 32.5634 114.644 33.2208C114.311 33.5469 112.764 34.6676 112.721 35.0964C112.524 37.06 115.671 36.0668 116.457 35.8763C118.561 35.379 120.496 34.4992 122.326 33.3514C122.671 33.1317 123 33.3776 123.083 33.6846C123.249 33.8319 123.328 34.0631 123.174 34.3024C122.878 34.7667 122.141 35.5423 122.037 36.0917C121.796 37.3646 123.505 36.3592 124.016 36.0619C125.433 35.2289 126.454 33.9866 127.118 32.4952C127.155 32.4084 127.21 32.3495 127.27 32.306C127.453 29.5612 126.795 26.8846 125.077 24.6591C124.243 23.578 123.263 22.7066 122.099 21.9837C121.566 21.6503 121.017 21.4033 120.436 21.1762C120.105 21.0241 119.765 20.9018 119.413 20.8157C118.697 20.4934 118.618 20.9318 119.173 22.1324C119.69 22.5085 119.256 23.3505 118.741 23.1055C118.697 23.1063 118.66 23.1108 118.612 23.0963C116.172 22.4495 113.702 22.1618 111.181 22.3711C110.838 22.3979 107.577 22.5437 107.344 23.0569C106.644 24.5799 108.751 24.7187 109.745 24.8946C110.09 24.7521 110.322 25.0023 110.363 25.2984C110.47 25.6319 110.243 26.0499 109.84 25.9943C107.566 26.9767 103.41 29.8238 104.3 32.5695C104.656 33.6644 105.155 33.7105 106.217 33.7695L106.219 33.7797Z" fill="#ACACAC"/>
</g>
</svg>
