<svg version="1.2" xmlns="http://www.w3.org/2000/svg" viewBox="0 0 327 325" width="327" height="325">
	<style>
		.s0 { fill: #ffffff } 
		.s1 { fill: none;stroke: #121d30;stroke-miterlimit:10;stroke-width: .8 } 
		.s2 { fill: #dedede } 
		.s3 { fill: #969696 } 
	</style>
	<path class="s0" d="m1.68 131.9q32.1 7 64.2 14.01c-9.78-29.15 26.66-48.22 16.88-77.37q-32.1-7-64.2-14.01c9.78 29.15-26.66 48.22-16.88 77.37z"/>
	<path class="s1" d="m45.03 113.13l-11.56-2.19 0.22-1.16q0.56-2.95 1.58-4.67 1.02-1.71 2.63-2.98 1.61-1.27 6.96-4.23 2.85-1.54 3.16-3.21 0.32-1.68-0.5-2.79-0.81-1.11-2.82-1.5-2.15-0.4-3.85 0.75-1.68 1.16-2.75 4.65l-11.53-3.69q1.85-6.39 6.71-9.59 4.88-3.19 13.39-1.58 6.64 1.26 10.19 4.8 4.84 4.79 3.65 11.03-0.49 2.59-2.37 4.72-1.88 2.13-6.95 4.77-3.54 1.85-4.62 3.18-1.08 1.32-1.53 3.7zm-12.54 0.81l12.38 2.34-2.07 10.92-12.38-2.34z"/>
	<path class="s0" d="m233.76 101.61q28.29-16.71 56.58-33.42c-27-14.71-13.27-53.48-40.28-68.19q-28.29 16.71-56.58 33.42c27 14.71 13.27 53.48 40.28 68.19z"/>
	<path class="s1" d="m252.91 55.92l-10.25 5.78-0.59-1.03q-1.46-2.61-1.79-4.58-0.34-1.97 0.09-3.98 0.41-2.01 2.6-7.72 1.18-3.02 0.34-4.5-0.84-1.48-2.18-1.81-1.34-0.34-3.13 0.68-1.91 1.08-2.44 3.05-0.54 1.97 0.88 5.33l-11.19 4.61q-2.72-6.08-1.04-11.66 1.67-5.58 9.22-9.84 5.88-3.32 10.88-2.9 6.77 0.55 9.9 6.08 1.28 2.29 1.23 5.14-0.07 2.85-2.25 8.13-1.51 3.69-1.47 5.41 0.02 1.71 1.21 3.82zm-9.07 8.7l10.98-6.19 5.45 9.68-10.98 6.19z"/>
	<path class="s0" d="m286.48 209.08q-28.3-16.71-56.59-33.42c27.01-14.71 13.27-53.48 40.28-68.19q28.3 16.71 56.58 33.42c-27.01 14.71-13.27 53.48-40.27 68.19z"/>
	<path class="s1" d="m279.94 167.61l-10.52-5.28 0.53-1.05q1.35-2.69 2.8-4.05 1.45-1.37 3.35-2.15 1.9-0.78 7.86-2.15 3.16-0.71 3.92-2.22 0.77-1.52 0.29-2.82-0.47-1.29-2.3-2.21-1.96-0.99-3.9-0.33-1.93 0.65-3.93 3.71l-10.07-6.72q3.53-5.64 9.09-7.37 5.57-1.73 13.31 2.16 6.04 3.03 8.48 7.41 3.33 5.93 0.48 11.61-1.18 2.35-3.58 3.89-2.39 1.53-8 2.67-3.9 0.81-5.31 1.78-1.41 0.97-2.49 3.13zm-12.28-2.67l11.26 5.66-4.99 9.93-11.26-5.66z"/>
	<path class="s2" d="m95.9 321.25h119.44v1.32c0 0.82-0.66 1.48-1.48 1.48h-116.48c-0.82 0-1.48-0.66-1.48-1.48z"/>
	<path class="s3" d="m180.34 278.89h-49.3v16.87c16.27-3.71 32.77-6.78 49.3-9.63z"/>
	<path class="s2" d="m131.04 295.76v17.47h49.31v-27.1c-16.54 2.85-33.04 5.92-49.31 9.63z"/>
	<path class="s2" d="m214.72 322.05h-118.04c-0.8 0-0.98-1.12-0.22-1.37l34.58-11.38h49.31l34.59 11.38c0.75 0.25 0.57 1.37-0.22 1.37z"/>
	<path class="s1" d="m174.74 309.3h4.43"/>
	<path class="s1" d="m131.04 309.3h39.16"/>
	<path class="s1" d="m131.04 295.76l37.11-7.48"/>
	<path class="s1" d="m180.34 278.89v30.41"/>
	<path class="s1" d="m130.02 322.05h83.89"/>
	<path class="s1" d="m131.04 280.92v25.79"/>
	<path class="s2" d="m252.47 138.07h-193.62c-4.61 0-8.36 3.74-8.36 8.36v127.88c0 4.62 3.75 8.36 8.36 8.36h193.62c4.62 0 8.36-3.74 8.36-8.36v-127.88c0-4.62-3.74-8.36-8.36-8.36z"/>
	<path class="s1" d="m260.83 168.78v105.53c0 4.62-3.74 8.36-8.36 8.36h-92.63"/>
	<path class="s1" d="m50.49 255.42v-108.99c0-4.62 3.74-8.36 8.36-8.36h193.62"/>
	<path class="s0" d="m196.96 190.53c-5.73 0-11 1.97-15.18 5.27q0-0.12 0-0.24c0-14.43-11.7-26.13-26.13-26.13-14.43 0-26.13 11.7-26.13 26.13q0 0.12 0 0.24c-4.18-3.3-9.44-5.27-15.18-5.27-13.54 0-24.51 10.97-24.51 24.51 0 13.54 10.97 24.51 24.51 24.51q0.48 0 0.95-0.02 0.48 0.02 0.95 0.02h79.19q0.39 0 0.76-0.02 0.38 0.01 0.76 0.02c13.54 0 24.51-10.97 24.51-24.51 0-13.54-10.97-24.51-24.51-24.51z"/>
	<path class="s1" d="m196.96 190.53c-5.73 0-11 1.97-15.18 5.27q0-0.12 0-0.24c0-14.43-11.7-26.13-26.13-26.13-14.43 0-26.13 11.7-26.13 26.13q0 0.12 0 0.24c-4.18-3.3-9.44-5.27-15.18-5.27-13.54 0-24.51 10.97-24.51 24.51 0 13.54 10.97 24.51 24.51 24.51q0.48 0 0.95-0.02 0.48 0.02 0.95 0.02"/>
</svg>